<svg width="202" height="41" viewBox="0 0 202 41" fill="none" xmlns="http://www.w3.org/2000/svg">
<path d="M5.2969 5.24757H9.6726C13.6453 5.24757 15.4301 6.51611 15.4301 9.05317C15.4301 11.3019 13.6453 12.8011 10.1332 12.8011H5.2969V5.24757ZM0 30.5029H10.709C16.3513 30.5029 21.9937 28.4848 21.9937 21.9692C21.9937 18.1636 19.2876 15.1652 15.5453 14.7616V14.7039C18.5967 13.7813 20.727 11.5326 20.727 8.18826C20.727 2.76817 16.121 0.692383 11.5726 0.692383H0V30.5029ZM5.2969 17.3563H10.3635C14.6816 17.3563 16.6968 18.4519 16.6968 21.5655C16.6968 25.4865 12.8968 25.9477 10.1908 25.9477H5.2969V17.3563Z" fill="#94D9F3"/>
<path d="M25.4482 0H30.5148V30.5601H25.4482V0Z" fill="#94D9F3"/>
<path d="M38.9207 20.4123C38.9207 17.241 41.1661 14.3579 44.8509 14.3579C48.5357 14.3579 50.7811 17.241 50.7811 20.4123C50.7811 23.5836 48.5357 26.4667 44.8509 26.4667C41.1661 26.4667 38.9207 23.526 38.9207 20.4123ZM33.9116 20.4123C33.9116 26.755 38.8055 31.0218 44.9085 31.0218C51.0114 31.0218 55.9053 26.755 55.9053 20.4123C55.9053 14.0696 51.0114 9.80273 44.9085 9.80273C38.7479 9.80273 33.9116 14.012 33.9116 20.4123Z" fill="#94D9F3"/>
<path d="M63.1599 20.4123C63.1599 17.241 65.4053 14.3579 69.0901 14.3579C72.7749 14.3579 75.0204 17.241 75.0204 20.4123C75.0204 23.5836 72.7749 26.4667 69.0901 26.4667C65.4053 26.4667 63.1599 23.526 63.1599 20.4123ZM58.1509 20.4123C58.1509 26.755 63.0448 31.0218 69.1477 31.0218C75.2507 31.0218 80.1445 26.755 80.1445 20.4123C80.1445 14.0696 75.2507 9.80273 69.1477 9.80273C62.9872 9.80273 58.1509 14.012 58.1509 20.4123Z" fill="#94D9F3"/>
<path d="M83.1381 10.2641H87.9168V13.4354H87.9744C88.838 11.5326 90.7956 9.74512 94.1349 9.74512C97.244 9.74512 99.3743 10.956 100.468 13.4931C101.965 10.8983 104.095 9.74512 107.089 9.74512C112.501 9.74512 114.344 13.5507 114.344 18.3942V30.5029H109.277V19.0285C109.277 16.4914 108.529 14.3003 105.535 14.3003C102.368 14.3003 101.217 16.895 101.217 19.5474V30.5029H96.1501V18.4519C96.1501 15.9725 95.1137 14.3003 92.6956 14.3003C89.3562 14.3003 88.0896 16.7221 88.0896 19.4321V30.5029H83.0229V10.2641H83.1381Z" fill="#94D9F3"/>
<path d="M135.301 20.4119C135.301 23.5832 133.056 26.4662 129.371 26.4662C125.686 26.4662 123.441 23.5832 123.441 20.4119C123.441 17.2405 125.686 14.3575 129.371 14.3575C133.056 14.2998 135.301 17.2405 135.301 20.4119ZM118.547 30.5025H123.326V27.4465H123.383C124.88 29.8682 127.529 30.9638 130.35 30.9638C136.568 30.9638 140.31 26.3509 140.31 20.3542C140.31 14.3575 136.338 9.74465 130.58 9.74465C126.78 9.74465 124.765 11.5321 123.729 12.8007H123.613V0H118.547V30.5025Z" fill="#94D9F3"/>
<path d="M147.68 18.3942C148.083 15.5112 149.925 13.6084 152.919 13.6084C156.086 13.6084 157.986 15.4535 158.043 18.3942H147.68ZM163.052 22.1422V20.7583C163.052 13.7237 159.252 9.74512 153.61 9.74512C147.507 9.74512 142.613 14.012 142.613 20.3547C142.613 26.6973 147.507 30.9642 153.61 30.9642C156.834 30.9642 159.771 29.811 162.131 26.928L158.504 24.2179C157.237 25.7748 155.625 26.928 153.092 26.928C150.271 26.928 148.025 25.1405 147.68 22.1422H163.052Z" fill="#94D9F3"/>
<path d="M166.334 10.264H171.401V13.493H171.459C172.553 11.1866 174.798 9.80273 177.446 9.80273C178.08 9.80273 178.656 9.91806 179.231 10.091V14.9345C178.368 14.7039 177.619 14.5309 176.813 14.5309C172.034 14.5309 171.401 18.5095 171.401 19.605V30.5029H166.334V10.264Z" fill="#94D9F3"/>
<path d="M190.573 14.3003C194.258 14.3003 196.561 16.722 196.561 20.2393C196.561 23.5836 194.316 26.1784 190.573 26.1784C187.177 26.1784 184.643 23.526 184.643 20.297C184.586 16.7797 187.004 14.3003 190.573 14.3003ZM196.561 10.264V13.32H196.504C195.007 10.8983 192.358 9.80273 189.537 9.80273C183.319 9.80273 179.577 14.4156 179.577 20.4123C179.577 26.1207 183.549 30.7912 189.652 30.7912C192.186 30.7912 194.776 29.811 196.273 27.8505H196.331V29.3497C196.331 33.3283 194.834 36.1536 189.94 36.1536C187.119 36.1536 185.046 35.1158 182.974 33.2706L179.922 37.4222C182.801 39.9592 186.198 40.7665 189.94 40.7665C197.828 40.7665 201.34 36.1536 201.34 28.8307V10.264H196.561Z" fill="#94D9F3"/>
</svg>
