<svg width="166" height="80" viewBox="0 0 166 80" fill="none" xmlns="http://www.w3.org/2000/svg">
<g clip-path="url(#clip0_110_3316)">
<path d="M45.4302 62.4706L47.6752 62.4814L47.7309 58.2071L47.7752 55.8661L47.8145 53.1788L47.9049 49.7563L47.9772 45.4382C47.9824 45.2171 48.0487 44.6045 47.8302 44.602L45.7389 44.5844L45.7219 41.9713L45.7383 40.8241L45.8405 39.122L57.3454 39.2294L62.1887 46.9569L66.5489 53.9861L66.6128 52.4783L66.6486 49.385L66.6665 48.1753L66.721 45.8424C66.7289 45.5016 66.8519 45.0257 66.6317 44.7655L64.1005 44.7506L64.1371 42.0711L64.1654 39.3029L73.0541 39.3623L76.1842 39.3548L76.1909 41.5148L76.1638 42.896L76.1077 44.8516L73.4961 44.8296L73.4397 47.8027L73.3955 50.136L73.2973 53.8966L73.2453 56.3415L73.1898 58.9425L73.0945 62.5731L73.0447 65.0389L73.0024 68.0748L64.4793 68.0682L54.8044 52.663L54.6318 62.4982L57.6872 62.5696L57.6054 67.7411C57.5118 67.8508 57.1766 68.0537 57.005 68.0497L45.427 67.9509C45.2487 67.5668 45.299 67.1959 45.2999 66.8212L45.3093 63.5243C45.3108 63.238 45.2511 62.7839 45.4278 62.4627L45.4302 62.4706Z" fill="#94D9F3"/>
<path d="M43.6215 60.3778L43.5648 63.0256L43.5439 65.7029L43.4599 67.9623L32.7452 67.8863L19.404 67.7541C19.2396 67.3313 19.174 66.9082 19.1909 66.5183L19.2461 65.2731L19.3022 62.0918L21.9295 62.1089C21.8308 61.5445 21.8239 61.1722 21.8334 60.6546L21.8882 57.4212L21.907 56.2793L21.985 52.9423L22.0158 50.6218L22.1237 45.1127C22.1813 44.9891 22.2731 44.7336 22.2017 44.6695C22.1099 44.5893 21.8467 44.4973 21.7192 44.4969L19.6459 44.4849L19.673 41.4356L19.6839 40.2987C19.6877 39.8043 19.6755 39.3252 19.8943 38.8671L44.0016 39.1025L43.9414 42.0131L43.851 45.5475L43.8233 47.7354L43.8256 48.1934C43.8258 48.2949 43.5281 48.3426 43.4105 48.3633L36.7547 48.278L36.7693 44.6482L30.5997 44.5769L30.5451 46.9125L30.5062 50.0239L37.613 50.0729C37.8809 50.0739 38.0872 50.3754 38.0841 50.6199L38.0275 55.0477L38.0286 55.5552C38.0281 55.6905 37.6603 55.7314 37.5068 55.7304L30.3843 55.6862L30.3058 62.1615L36.4735 62.2068L36.4824 60.5987L36.5467 58.4039L43.4739 58.4565C43.6645 59.0959 43.6472 59.7226 43.6321 60.3703L43.6215 60.3778Z" fill="#94D9F3"/>
<path d="M0.181847 69.8947C1.41351 70.1838 2.40921 70.5505 3.46676 69.9403C3.95728 69.6577 4.56529 69.0239 4.78861 68.4853C5.03396 67.8951 5.4406 66.0804 5.45185 65.5992L5.52468 62.8164L5.54518 60.7143L5.59454 56.3748L5.72147 52.2791L5.78221 49.9021L5.81789 48.3753L5.83728 47.5457L5.92509 44.3443L2.44994 44.2006L2.48243 42.4761L2.53372 39.8359C2.54314 39.4328 2.46929 39.0303 2.69332 38.6843L17.5771 38.8239C17.8422 38.8379 17.8962 39.4194 17.8905 39.6639L17.8239 42.8476C17.8117 43.3729 17.9373 43.8989 17.6442 44.4152L14.4571 44.4135L14.392 46.7567L14.2478 54.8204L14.1717 57.5198L14.0916 64.6222L14.0636 65.8186C14.0437 66.6717 13.8172 67.5668 13.6645 68.4272C13.4216 69.8034 12.9973 71.1466 12.0675 72.1919C11.4502 72.8879 10.8426 73.6179 10.0873 74.0973C8.97801 74.8052 7.88909 75.3107 6.61388 75.5489C4.6096 75.9236 1.60244 76.3504 0.0836754 75.3208L0.0814126 72.4114L0.181786 69.8973L0.181847 69.8947Z" fill="#94D9F3"/>
<path d="M24.7919 37.3653C24.7534 35.8993 24.939 34.5245 25.4371 33.2506L26.1425 31.4532C26.7455 29.919 27.959 27.8707 29.1675 26.8112L30.8542 25.3308L32.6839 24.0751C33.0514 23.8234 33.6036 23.688 34.0425 23.4979C37.0968 22.1666 40.4336 21.9948 43.6817 22.8383C46.0634 23.4561 48.0453 24.7098 49.8727 26.3373C52.9559 29.4463 54.4307 33.137 54.4663 37.6267L36.8747 37.4629L24.7894 37.3627L24.7919 37.3653Z" fill="#94D9F3"/>
<path d="M125.712 67.2455C125.143 68.2029 121.943 68.1047 121.61 67.5296C121.515 67.3635 121.537 67.0023 121.54 66.7447L121.596 62.9154L121.716 60.2041L121.76 58.8987L121.832 56.3658L121.837 53.6881L121.932 51.7646L125.599 51.689L128.287 57.6824C128.456 58.0585 128.454 58.4722 128.921 58.6263L129.136 55.5502L129.133 51.6545L131.039 51.6079L133.123 51.7139L133.135 53.6477L133.048 55.462L132.966 57.6538L132.793 63.0444L132.707 66.4097C132.698 66.7842 133.072 67.5815 132.429 67.8215L130.699 67.8097L128.669 67.8351C128.619 66.8581 128.125 66.0632 127.729 65.2056L125.864 61.1675L125.717 67.2535L125.712 67.2455Z" fill="#94D9F3"/>
<path d="M96.6377 67.7996L93.1278 67.6967C92.9302 67.6921 92.6418 67.675 92.5158 67.6122C92.3692 67.5385 92.3498 67.1451 92.3879 66.9612C92.587 66.0108 92.4787 65.1886 92.4946 64.2859L92.5663 59.8819L92.6477 58.4031L92.7816 55.4579L92.8559 51.9413C92.8749 51.1272 94.5518 51.9627 96.4188 51.5587C96.5914 51.5211 96.987 51.7386 97.0819 51.9073L96.861 54.4602L96.7901 55.5984L96.7571 57.6794L99.9716 57.6218L100.041 55.9814L100.134 53.7872L100.288 51.6726L103.832 51.516C103.991 51.6342 104.247 51.8926 104.249 52.0488L104.259 53.1888L104.021 55.4421L104.001 57.1122L103.922 58.1487L103.893 59.8395L103.835 62.542L103.691 67.5922C103.094 68.2809 101.856 67.6274 100.337 67.8079L99.818 67.8687C99.7032 67.8816 99.5866 67.5276 99.5843 67.4026L99.5866 65.7476L99.8788 62.9309C99.9294 62.4351 99.8761 61.9316 99.8065 61.3471L96.6535 61.4477L96.5332 64.4766L96.6376 67.8048L96.6377 67.7996Z" fill="#94D9F3"/>
<path d="M156.427 62.4729L156.53 63.779L162.2 63.8464L163.426 63.8335C163.486 64.691 163.407 65.3944 163.289 66.2348C163.248 66.5331 163.452 67.165 163.065 67.3537C162.302 67.7288 161.507 67.5724 160.68 67.5608L152.646 67.4434C152.534 67.4407 152.257 67.3692 152.218 67.2772C152.178 67.1852 152.167 66.9742 152.171 66.8207L152.257 62.1438L152.302 60.1958L152.493 56.8276L152.582 55.1382L152.701 54.2848C152.626 53.3775 152.579 52.4682 152.926 51.5577L161.044 51.7526L163.649 51.9332C164.017 52.0068 163.886 52.6908 163.825 52.9756L163.413 54.8891C163.343 55.2101 162.459 55.304 162.153 55.263L156.812 55.0523C156.562 55.1506 156.421 55.5324 156.437 55.832L156.498 56.9082L156.502 57.8165L159.574 57.6541C160.217 57.6197 160.071 59.5393 159.776 60.5916C159.583 61.2793 158.645 61.2235 158.193 61.1922L156.413 61.0699L156.427 62.4781L156.427 62.4729Z" fill="#94D9F3"/>
<path d="M149.102 62.0935L148.981 63.4777L148.962 65.4316C148.956 66.1393 148.923 66.8438 148.781 67.504L146.998 67.5092L145.129 67.5462C142.786 68.0484 140.394 67.7739 138.585 66.139C136.776 64.5041 136.056 62.4627 135.984 60.0773C135.973 59.6841 135.945 59.2202 136.005 58.8625L136.174 57.8776C136.57 56.4998 137.217 55.2086 137.961 54.0003L138.537 53.3788C139.239 52.6223 140.227 52.2238 141.245 51.964C144.362 51.1677 146.694 51.4876 149.069 53.729L147.829 55.6726C147.532 56.1392 147.261 56.5883 146.779 56.8451C146.163 55.9407 145.332 55.4086 144.46 55.2269C143.37 55.0011 142.481 55.5164 141.63 56.0794C141.125 56.4163 140.833 56.6801 140.529 57.2325C139.561 58.9899 139.318 61.1805 140.481 62.9252C141.12 63.8822 143.542 64.5477 144.747 63.8758L144.875 62.2836C144.915 61.7875 144.752 61.2034 145.113 60.7981L148.966 60.7996C149.261 61.0876 149.138 61.6546 149.1 62.0909L149.102 62.0935Z" fill="#94D9F3"/>
<path d="M114.053 64.813L111.071 64.8422L110.524 66.7604C110.436 67.0654 110.42 67.5464 110.217 67.7551L108.419 67.7703C107.885 67.7761 107.181 67.8819 106.714 67.5743C106.603 67.4182 106.801 66.97 106.855 66.7813L107.819 63.2699L107.976 62.342C108.278 61.6542 108.512 60.9935 108.665 60.2658L108.916 59.0747L110.002 55.2616L110.367 53.7895L111.185 51.594L114.402 51.5599C114.886 51.5556 115.172 51.6586 115.269 52.2073L115.527 53.7149L116.576 59.0741L116.929 60.524L117.35 62.4361L117.861 64.6236L118.592 67.4173C118.618 67.5194 118.482 67.8806 118.386 67.8809L117.988 67.8768L115.274 67.9097C115.079 67.9129 114.799 67.745 114.766 67.5777L114.433 65.9331C114.365 65.5958 114.232 65.1763 114.053 64.813ZM113.276 60.8784C113.226 59.8884 113.175 59.1924 112.829 58.2891L112.152 59.9882C112.053 60.2357 112.001 60.5754 111.983 60.882L113.279 60.8785L113.276 60.8784Z" fill="#94D9F3"/>
<path d="M83.6007 64.0032C84.9737 64.0353 86.1477 63.5605 87.2209 62.8387C87.443 62.6877 87.8715 62.7186 87.988 62.9685L89.4067 66.0515C87.9522 67.3942 86.1123 68.0824 84.0987 67.9677C82.2539 67.8621 80.463 67.3441 79.0382 66.1918L78.1917 65.3393C75.3397 62.4674 75.7838 55.043 80.1536 52.6391C80.8784 52.2397 81.6021 51.8896 82.4313 51.6982C84.6784 51.1756 87.9899 51.7527 89.7018 53.4243L88.4142 55.9731C88.2669 56.2663 88.0343 56.6434 87.789 56.7886C86.3774 55.3998 84.4283 54.6413 82.8874 55.6722L81.6715 56.4869C81.0542 57.4093 80.6515 58.3888 80.2811 59.4315L80.437 60.2184C80.3796 62.1167 81.6425 63.7414 83.6008 64.0006L83.6007 64.0032Z" fill="#94D9F3"/>
<path d="M136.888 44.8872L136.728 47.9671L137.678 47.9711C137.802 48.6636 137.775 49.2719 137.541 50.0341L133.77 50.0657C133.687 50.0664 133.425 50.0316 133.38 49.9603C133.317 49.8678 133.298 49.6643 133.297 49.5082L133.277 48.1233L134.151 47.9173L134.2 46.3753L134.373 41.8514L133.596 41.8046L133.675 39.7792L136.74 39.7884C137.036 39.7901 137.722 39.7359 137.885 39.9999L140.851 44.7898L140.932 41.8407L140.049 41.8044L140.08 39.8092L144.385 39.8291L144.366 41.77L143.433 41.9225L143.27 48.0393L143.247 49.4726C143.243 49.6105 143.212 49.9428 143.102 49.9923C142.991 50.0418 142.783 50.0551 142.614 50.0538L140.049 50.0303L138.528 47.5356L136.883 44.8948L136.888 44.8872Z" fill="#94D9F3"/>
<path d="M92.9341 50.0388C90.0673 49.4722 91.3421 46.4651 90.627 45.8941C90.4763 45.7761 90.1 45.7335 89.7052 45.706L89.6761 47.7299L90.4888 47.9129L90.5046 49.9092L85.8472 49.9227C85.7754 49.4318 85.7387 48.9989 85.8179 48.5011L85.9184 47.8763C85.9428 47.7234 86.2898 47.7939 86.5773 47.8475L86.6903 46.575L86.6736 45.3958L86.7545 41.5983L86.0129 41.4951C85.9695 40.7889 85.9962 40.204 86.1667 39.4767L91.5376 39.5476C92.3439 39.5586 93.2548 39.8791 93.8525 40.3563C94.5447 40.906 94.6024 41.7765 94.6279 42.5786C94.6605 43.6307 93.9772 44.2601 92.93 44.7613C94.7769 45.6658 93.9408 47.3742 94.6598 47.6694C94.7341 47.273 94.8081 46.8896 95.0601 46.7966C95.3881 46.6741 95.9238 46.796 95.8944 47.1674C95.8496 47.7467 95.8004 48.4039 95.6174 48.8862C95.2046 49.9618 93.9649 50.2425 92.9367 50.0389L92.9341 50.0388ZM91.3114 43.5498C91.7328 43.1069 91.7191 42.3571 91.3821 41.9693C91.025 41.555 90.3649 41.5239 89.8467 41.6523L89.8066 42.367C89.7804 42.8192 89.7496 43.3598 89.8485 43.8045C90.2924 43.958 90.9993 43.8782 91.3114 43.5498Z" fill="#94D9F3"/>
<path d="M100.25 47.0424C100.094 47.0388 99.8365 47.2566 99.7999 47.378C99.7632 47.4995 99.7915 47.8462 99.9058 47.8567L100.418 47.8843C100.537 47.8897 100.733 48.2117 100.722 48.3494L100.587 49.9701L96.5059 49.9476C96.3681 49.9443 96.0346 49.8533 96.0395 49.7519L96.0609 49.284C96.0724 49.0136 96.0036 48.5046 95.9441 48.1597C95.8523 47.6319 96.9105 48.2187 97.1933 47.3613L98.1702 44.4123L98.7676 42.3419C98.8753 41.9644 98.9601 41.6724 98.5185 41.42L98.6529 39.5677L104.105 39.6041L104.602 41.1874L106.387 47.8364L107.228 47.9211C107.47 48.2676 107.417 49.4192 107.187 50.002L101.625 49.9761C101.567 49.6963 101.574 49.4128 101.589 49.0957C101.603 48.8098 101.498 48.1802 101.709 47.9691C101.869 47.8089 102.465 47.8983 102.701 47.909C102.818 47.9143 102.922 47.5837 102.868 47.4757C102.813 47.3677 102.601 47.0843 102.468 47.0812L100.245 47.0371L100.25 47.0424ZM102.182 45.0864L101.481 42.59C101.088 43.4838 100.836 44.23 100.622 45.1488L102.182 45.0864Z" fill="#94D9F3"/>
<path d="M130.667 49.6033C128.167 51.0204 124.308 50.389 123.334 47.41C122.599 45.1627 122.848 43.1621 124.241 41.2169C125.71 39.1642 129.452 38.8092 131.567 40.5918C132.465 41.3492 132.844 42.5057 133.006 43.6805C133.186 44.9859 132.941 47.265 132.193 48.2181C131.79 48.7318 131.276 49.2637 130.667 49.6085L130.667 49.6033ZM129.131 46.4187L129.39 44.4548C129.501 43.6168 129.257 42.6899 128.653 42.1241C128.221 41.7185 127.574 41.797 127.233 42.2263C126.134 43.6188 126.337 47.8393 127.932 47.8219C128.364 47.8164 129.014 47.3085 129.131 46.4187Z" fill="#94D9F3"/>
<path d="M148.118 47.8698L149.202 48.0383L149.097 49.8262C148.963 49.9974 148.528 50.0445 148.309 50.0446L144.677 50.0326C144.428 49.3398 144.444 48.6844 144.627 47.9808L145.569 47.943L146.631 44.5848L147.48 42.1143L147.061 41.5658L147.054 39.8351L152.6 39.8866L154.835 48.0294L155.793 48.0778L155.758 50.0625L150.539 50.0551L150.023 49.84C149.913 49.7932 149.988 49.4749 149.991 49.337L150.009 48.0233L151.288 47.9335C151.322 47.8146 151.136 47.2169 150.938 47.2149L148.574 47.1701C148.412 47.2053 148.216 47.5807 148.115 47.8724L148.118 47.8698ZM149.145 45.3202L150.599 45.2552L149.892 42.652L149.51 43.7387L149.146 45.3176L149.145 45.3202Z" fill="#94D9F3"/>
<path d="M82.6586 47.7628L82.8285 46.3902L84.9852 46.399C85.1378 46.4364 85.347 46.8342 85.3376 47.0135L85.1815 49.9114L76.6492 49.8526L76.512 47.8196L77.4952 47.6084L77.5428 44.6793L77.5656 43.3683L77.6418 41.6681L76.7368 41.4284L76.7328 39.9268C76.7337 39.7759 76.8212 39.372 77.0033 39.3762L85.4928 39.4835L85.4647 41.3513L85.4052 42.8957L82.7943 42.8451L82.8423 41.5711L80.8518 41.5792C80.6197 42.1593 80.6834 42.8842 80.8267 43.4315L83.3189 43.4402L83.2694 45.56L80.6077 45.568L80.6206 47.7959L82.656 47.7628L82.6586 47.7628Z" fill="#94D9F3"/>
<path d="M110.296 50.0327C110.139 50.0343 109.808 49.9589 109.795 49.8519L109.735 49.3222C109.683 48.8578 109.712 48.4082 109.796 47.9314L110.916 47.8613L110.972 45.9239L111.095 41.7735L110.095 41.7059L110.044 43.0058C110.036 43.206 109.863 43.6001 109.655 43.6005L107.795 43.596L107.924 39.6254L117.145 39.6977C117.385 39.7007 117.509 40.0575 117.502 40.2629L117.459 41.4356L117.407 43.6437L115.141 43.6298L115.188 42.0643C115.2 41.695 114.272 41.6421 114.166 41.9363L114.097 44.576L113.985 47.8055L115.081 47.995L115.101 50.0149L110.296 50.0353L110.296 50.0327Z" fill="#94D9F3"/>
<path d="M164.198 47.6912L164.171 49.4185C164.166 49.6239 164.146 50.1361 163.884 50.1326L156.158 50.0796L156.2 48.0638L157.004 47.942L157.04 46.6313L157.11 43.95L157.158 42.1425L156.36 41.757L156.529 39.8873L160.945 39.9228L160.983 41.8806L160.234 41.9828L160.125 45.3034L160.098 46.466L160.074 48.0528L161.598 47.9817L161.729 46.2387L164.059 46.202C164.262 46.6205 164.209 47.1189 164.198 47.686L164.198 47.6912Z" fill="#94D9F3"/>
<path d="M122.473 48.3271L122.437 50.0828L117.614 50.0612L117.584 48.0021L118.504 47.8987L118.633 44.3079L118.707 42.017C118.63 41.8435 118.265 41.7725 117.978 41.8022C117.853 41.1591 117.867 40.4595 117.996 39.6896L122.678 39.7444L122.771 41.5837C122.781 41.8026 122.222 41.904 121.831 41.8272L121.784 42.9373L121.676 46.1044L121.624 47.9065C121.981 47.8837 122.481 48.0853 122.475 48.3298L122.473 48.3271Z" fill="#94D9F3"/>
<path d="M22.5257 34.2547C20.4385 35.0621 18.0248 35.2529 15.891 34.602L10.962 33.1024L4.53051 30.9873L4.49281 30.708C4.48411 30.6349 4.66838 30.543 4.74887 30.5501L8.29996 30.784L14.6265 31.2675C16.2574 31.3915 17.8282 31.423 19.3256 32.2517C20.4208 32.704 21.5194 33.1174 22.5257 34.2547Z" fill="#94D9F3"/>
<path d="M25.2446 16.8776C26.9047 18.3165 27.8413 20.212 28.5074 22.2157C28.6677 22.7009 28.8033 23.1334 28.6708 23.682C26.1222 22.7455 24.1649 21.0005 22.8762 18.6959C22.0495 17.2193 21.1834 15.8745 20.2536 14.4684L17.2355 9.46391L17.2217 9.16172C17.2186 9.07317 17.4881 9.1185 17.5706 9.15166L20.6532 12.1747L21.8169 13.3677L23.7195 15.3431C24.2224 15.8675 24.6658 16.3749 25.2446 16.8776Z" fill="#94D9F3"/>
<path d="M55.2687 21.5457C55.0844 21.7522 54.7835 21.9377 54.5505 22.1092C53.5232 22.8711 52.6064 23.5809 51.2651 23.9763C51.0916 23.608 51.1258 23.1456 51.3176 22.7337C51.7994 21.7118 52.2262 20.7017 52.8031 19.7289C53.4749 18.5944 54.5587 17.7505 55.4905 16.8433L57.8678 14.5334L58.8857 13.6177L61.8353 10.9751L63.1034 9.92994C63.2215 10.1071 63.1828 10.4288 63.0455 10.626L62.0706 12.0423L61.2012 13.5053L60.4884 14.3916L59.1165 16.431L58.3584 17.475L57.6663 18.4815L56.3665 20.3274L55.2633 21.5534L55.2687 21.5457Z" fill="#94D9F3"/>
<path d="M40.0774 19.6522C39.3783 18.837 39.2709 17.9783 39.0076 17.1108C38.8312 16.5316 38.7925 15.9608 38.7319 15.327C38.6778 14.748 38.5368 14.102 38.6099 13.5338L38.869 11.5751L39.6139 6.30723L39.7861 5.28334L40.0171 3.52699C40.131 2.65788 40.1591 1.79197 40.5752 0.906509C41.1768 2.7734 41.1403 4.56032 41.2536 6.39238L41.3771 7.00681C41.4372 9.00157 41.6053 10.9364 41.811 12.9346C41.8513 13.3232 41.8957 13.9853 41.8388 14.3066L41.6052 15.6179C41.3566 17.0148 40.861 18.2939 40.08 19.6523L40.0774 19.6522Z" fill="#94D9F3"/>
<path d="M63.2513 35.1107C61.7793 35.5317 58.2783 35.4915 56.8022 34.5306C59.0654 32.5381 61.8938 31.8573 64.7694 31.8256L68.6982 31.5974L74.5549 31.3621L74.884 31.643L71.4525 32.7469L68.3613 33.6531L63.2486 35.1132L63.2513 35.1107Z" fill="#94D9F3"/>
<path d="M34.1222 20.5334C33.3337 20.4265 32.9104 19.8389 32.5099 19.2753C31.8926 18.4125 31.8406 17.5213 31.6617 16.4918L31.32 14.5269C31.1892 13.7744 30.9723 13.15 31.1617 12.2826L32.3415 14.1214L33.7934 16.7862C34.4146 17.9276 34.6352 19.174 34.1248 20.5335L34.1222 20.5334Z" fill="#94D9F3"/>
<path d="M20.5364 27.0856L18.4651 25.3171L17.1848 24.215C17.313 23.963 17.5966 23.9618 17.8003 24.0394L22.7725 25.92C23.7396 26.2861 24.2694 27.4382 24.6624 28.327C22.9972 28.8866 21.7125 28.0837 20.5391 27.083L20.5364 27.0856Z" fill="#94D9F3"/>
<path d="M46.7256 20.3961C46.5863 20.5672 46.1664 20.7213 45.9305 20.6872C45.7762 19.9419 45.5004 18.9388 45.7464 18.2107C46.0956 17.1806 46.5815 16.2056 47.1878 15.3116L47.8561 14.3253C48.2441 13.7515 48.2963 13.0787 49.1009 12.715L48.848 14.5203L48.6193 15.7328L47.9899 18.8434L46.7256 20.3935L46.7256 20.3961Z" fill="#94D9F3"/>
<path d="M55.0019 28.7345C54.9446 28.0695 55.4608 27.6913 55.7551 27.2323L56.1169 26.6683L58.3464 25.6743L59.8194 25.0997L62.3038 24.221C62.1255 24.8361 61.8065 25.0135 61.4322 25.3352L58.5648 27.795C57.6171 28.6056 56.3539 28.9977 55.0019 28.7371L55.0019 28.7345Z" fill="#94D9F3"/>
</g>
<defs>
<clipPath id="clip0_110_3316">
<rect width="163.508" height="75.9142" fill="white" transform="translate(1.77344) rotate(1.33858)"/>
</clipPath>
</defs>
</svg>
