<svg width="200" height="72" viewBox="0 0 200 72" fill="none" xmlns="http://www.w3.org/2000/svg">
<g clip-path="url(#clip0_110_3275)">
<path d="M44.4737 58.3816C45.3175 58.8663 45.765 59.6772 45.7557 60.4555C45.7464 61.2338 45.2988 62.2405 44.3618 62.5481L15.4168 72.0042L11.7246 71.9669C11.3051 71.6081 10.9461 70.6853 10.9461 70.1587L10.9694 61.6766C8.46606 62.9536 5.9114 63.0235 3.55253 61.6393C1.61323 60.4975 0.00491224 58.3303 0.00491224 55.6412V2.13408C0.000250456 1.36976 0.550341 0.619424 0.983888 0.353775C1.60857 -0.0330458 2.57822 -0.144898 3.23553 0.232602L14.3213 6.63612C14.8667 6.94838 15.4634 7.64279 15.4634 8.40711L15.4727 55.4408L29.4767 50.8829C30.3858 50.5846 31.2436 50.6219 32.0081 51.1905L44.4737 58.3769V58.3816ZM10.9601 56.8297V10.001L4.51286 6.22134V55.59C4.51286 57.2817 6.17246 58.4049 7.66423 58.0088C8.85765 57.6919 9.92519 57.3283 10.9601 56.8297ZM15.482 67.1573L37.7561 59.8823L30.2366 55.4315L15.4448 60.2784L15.4867 67.1573H15.482Z" fill="#94D9F3"/>
<path d="M113.589 50.3237L113.528 47.7185C108.489 47.0894 104.657 43.2538 103.878 38.2531C103.244 34.1844 104.559 30.0133 107.794 27.3475C111.929 23.9407 117.999 24.0945 122.045 27.5619C124.829 29.948 126.064 33.4015 125.873 37.0367C125.584 42.5687 121.593 47.0427 116.102 47.7139L116.06 50.3051L113.589 50.3237ZM116.083 41.8556V45.3836C117.906 45.0807 119.43 44.3956 120.745 43.0487C124.209 39.5021 124.446 33.7277 121.071 29.9201C117.519 25.9121 110.983 26.3315 107.911 30.7217C105.585 34.0493 105.627 38.4348 107.832 41.7577C109.198 43.813 111.225 45.0714 113.566 45.3603L113.575 41.8696L116.083 41.8556Z" fill="#94D9F3"/>
<path d="M198.033 43.133C196.019 45.9153 192.872 47.3368 189.497 47.3461L181.805 47.3694V25.2041L190.262 25.288C195.287 25.3393 199.082 29.0723 199.809 33.9752C200.284 37.1769 199.893 40.3227 198.028 43.133H198.033ZM197.203 38.6543C197.497 37.0231 197.511 35.4525 197.17 33.812C196.434 30.298 193.59 27.6043 189.935 27.5577L184.323 27.4831V45.1277L189.548 45.0578C193.427 45.0065 196.518 42.4526 197.208 38.6543H197.203Z" fill="#94D9F3"/>
<path d="M151.317 25.2646L153.839 25.2227L153.792 40.5184C153.783 42.9046 152.538 45.109 150.599 46.3766C147.793 48.2129 144.212 48.2408 141.35 46.4699C139.434 45.2861 138.045 43.105 138.035 40.7514L137.979 25.2553L140.478 25.2366L140.46 40.057C140.46 43.0024 142.511 45.2768 145.406 45.4818C148.795 45.7242 151.345 43.4266 151.34 40.057L151.312 25.2646H151.317Z" fill="#94D9F3"/>
<path d="M77.8193 45.1039L77.8379 47.3782L65.666 47.3736L65.6753 25.2176L68.0622 25.2129L68.0575 45.1085L77.8193 45.1039Z" fill="#94D9F3"/>
<path d="M91.5713 47.2625L89.0633 47.3604L89.0586 25.2556L91.5666 25.251L91.5713 47.2625Z" fill="#94D9F3"/>
<path d="M168.99 47.271L166.556 47.3223V25.2129L168.99 25.2176V47.271Z" fill="#94D9F3"/>
</g>
<defs>
<clipPath id="clip0_110_3275">
<rect width="200" height="72" fill="white"/>
</clipPath>
</defs>
</svg>
