<svg width="154" height="82" viewBox="0 0 154 82" fill="none" xmlns="http://www.w3.org/2000/svg">
<g clip-path="url(#clip0_110_3384)">
<path d="M18.4382 34.1069C18.6731 33.8833 18.8963 33.6596 19.1429 33.4594C19.7301 32.9767 20.3408 32.5176 20.9397 32.0466C21.4682 31.6346 21.4917 31.4227 21.0689 30.9046C20.9045 30.7045 20.7518 30.5044 20.6109 30.2924C20.376 29.951 20.0707 29.9039 19.7066 30.0334C18.908 30.3278 18.1212 30.6456 17.3108 30.9046C16.9585 31.0106 16.5827 30.9988 16.2069 31.0459C16.1951 30.9871 16.1834 30.9282 16.1716 30.8693C16.5944 30.6103 17.0172 30.3513 17.44 30.1041C18.1094 29.7156 18.7906 29.327 19.46 28.9268C19.5304 28.8797 19.6127 28.8208 19.6361 28.7384C19.7771 28.3852 19.1546 27.5258 18.7788 27.5375C18.6614 27.5375 18.5439 27.5611 18.4265 27.5846C17.9685 27.6906 17.898 27.5846 17.8158 27.1137C17.6279 25.8657 18.4735 25.3595 19.3425 24.8532C19.8945 24.5354 20.4465 24.2057 20.9985 23.8879C20.9985 23.8408 20.9985 23.7937 20.9985 23.7466C20.5874 23.6053 20.1764 23.464 19.7536 23.3345C18.5205 22.946 17.2756 22.581 16.0425 22.1807C15.6666 22.063 15.3026 21.8746 14.962 21.6745C14.7154 21.5332 14.7389 21.3449 14.915 21.1212C15.3848 20.4972 15.9837 20.1322 16.7354 19.9203C17.4752 19.7084 18.1681 19.3199 18.8845 19.0373C19.7184 18.7077 20.5522 18.4016 21.3978 18.119C21.8558 17.966 22.1141 17.7305 22.1846 17.2125C22.2786 16.4825 22.4547 15.7761 22.6074 15.058C22.6661 14.799 22.5956 14.6577 22.349 14.5282C21.1511 13.8689 19.9532 13.1743 18.7671 12.4914C18.6849 12.4443 18.5909 12.409 18.5557 12.3384C18.4617 12.1853 18.2973 11.9616 18.3443 11.8557C18.4148 11.7026 18.6496 11.5731 18.8258 11.5496C19.1781 11.5025 19.5422 11.526 19.9063 11.5378C21.1276 11.5849 22.349 11.632 23.5704 11.7026C23.8875 11.7144 24.1224 11.6085 24.2633 11.3141C25.0502 9.77184 26.1071 8.40616 27.1758 7.06402C27.4577 6.71082 27.8218 6.44004 28.1036 6.09862C28.2445 5.92202 28.3737 5.63947 28.3385 5.42755C28.1506 4.42683 29.0079 3.74399 29.8887 3.68512C30.0531 3.68512 30.2176 3.68512 30.382 3.70867C30.8282 3.74399 31.1923 3.62626 31.5916 3.36725C33.2475 2.31944 34.9739 1.41291 36.8999 0.941979C37.8395 0.706516 38.7672 0.435734 39.7068 0.23559C40.3057 0.106085 40.9281 0.0236732 41.5506 -0.0116462C42.2552 -0.0469657 42.9599 -0.0116462 43.6645 -0.0116462C44.9916 -0.0116462 46.2952 0.200271 47.587 0.529919C48.7027 0.824248 49.8301 1.11858 50.9341 1.47177C51.4156 1.62482 51.8384 1.91915 52.2964 2.14284C55.0328 3.5203 57.3933 5.36868 59.3428 7.73509C60.118 8.67694 60.7874 9.71298 61.4098 10.7608C61.9383 11.6555 62.3376 12.6209 62.7839 13.5746C63.0187 14.0926 63.1362 14.175 63.6647 13.9749C64.2049 13.7747 64.7216 13.5157 65.2619 13.292C65.6846 13.1154 66.1192 12.9506 66.5537 12.7858C66.8356 12.6798 66.9765 12.8093 66.9295 13.0801C66.8708 13.4922 66.7651 13.8924 66.6829 14.2927C66.6359 14.5164 66.542 14.7401 66.5772 14.952C66.6007 15.1169 66.7533 15.3523 66.8943 15.3876C68.8555 15.8468 70.6641 16.6945 72.3318 17.7658C74.2461 19.002 75.8198 20.6149 76.5949 22.8165C76.9824 23.9349 77.1234 25.1005 76.9002 26.3367C76.3952 29.1151 74.6806 30.9517 72.4962 32.5058C70.9695 33.5889 69.2548 34.2835 67.505 34.8722C66.7064 35.143 65.8491 35.2607 65.0152 35.4138C64.4163 35.5197 63.8056 35.555 63.2066 35.661C62.6312 35.767 62.3493 36.2143 62.2554 36.7324C62.1732 37.2268 62.1849 37.7449 62.1849 38.2511C62.1849 38.8044 62.6194 39.0988 63.007 39.3578C64.7099 40.4998 66.2131 41.8537 67.5519 43.396C68.2918 44.2554 69.0552 45.1031 69.7246 46.0096C70.5819 47.1634 71.404 48.3407 72.1439 49.5651C73.2478 51.3899 74.2696 53.2736 75.303 55.1456C75.5262 55.5459 75.7023 55.9932 75.808 56.4288C76.0077 57.253 75.6319 57.9358 75.0799 58.5009C74.6923 58.9012 74.7276 59.3133 74.8685 59.7842C75.0799 60.5023 75.1621 61.2205 75.0799 61.974C74.9155 63.5869 74.4105 65.1174 74.0464 66.6833C73.835 67.5662 73.7176 68.461 73.5532 69.3558C73.471 69.7914 73.3653 70.2387 73.2361 70.6626C72.9425 71.6162 73.3535 72.1813 74.2108 72.5934C75.6084 73.2645 76.3365 74.3947 76.407 75.9252C76.4305 76.4785 76.3835 77.0789 76.2073 77.597C76.0781 77.9855 75.7493 78.4211 75.397 78.6095C74.7511 78.9509 74.0347 79.2217 73.3183 79.3512C72.3318 79.5395 71.2983 79.5278 70.3001 79.669C69.5954 79.775 68.9025 79.9869 68.2214 80.1753C66.9647 80.5167 65.7081 80.8817 64.4398 81.1995C63.6529 81.3997 62.8426 81.5527 62.044 81.7176C61.8208 81.7647 61.5977 81.8 61.3863 81.8118C59.7421 81.8824 58.1097 82.0001 56.4655 81.9766C55.3264 81.9648 54.1872 81.7882 53.0598 81.5998C51.8032 81.3879 50.5465 81.0936 49.3134 80.7757C48.1507 80.4814 47.0703 80.0222 46.1543 79.1863C44.8624 78.0208 44.698 75.6191 46.9059 74.7243C47.7514 74.3829 48.5735 74.0179 49.4074 73.6412C49.5953 73.5588 49.7597 73.4175 49.9358 73.2998C50.3234 73.029 50.3704 72.77 50.0415 72.4286C49.7597 72.1342 49.7362 71.8164 49.9828 71.5456C50.6287 70.8745 51.2864 70.1917 52.0028 69.5912C53.3651 68.4257 54.7157 67.2601 55.7022 65.7179C55.9723 65.294 55.9488 64.8937 55.6787 64.5052C54.8214 63.2808 53.9406 62.08 53.1185 60.832C52.7779 60.314 52.2964 59.9961 51.7679 59.7606C50.2177 59.1013 48.644 58.5127 47.1055 57.8181C45.9898 57.3118 44.9329 56.6879 43.8407 56.1345C42.4901 55.4517 41.1513 54.6982 39.7537 54.1213C38.321 53.5326 36.8412 53.0853 35.3497 52.6497C34.0344 52.2729 32.7073 51.955 31.3567 51.696C30.4524 51.5194 29.5247 51.4253 28.6086 51.4135C27.0701 51.3782 25.5199 51.3428 23.9932 51.4959C22.854 51.6136 21.7148 51.9433 20.6226 52.32C19.6949 52.6261 18.8023 53.0617 17.9567 53.5562C16.8411 54.2037 16.1364 55.228 15.8546 56.4995C15.6197 57.5708 15.4318 58.654 15.2086 59.7371C15.0912 60.3022 14.9737 60.8673 14.8211 61.4207C14.7624 61.609 14.6097 61.7856 14.457 61.9269C14.3983 61.9858 14.1634 61.974 14.1517 61.9387C14.0225 61.6208 13.8698 61.2912 13.8346 60.9615C13.7993 60.7025 13.9285 60.4317 13.952 60.1727C14.0929 58.3596 14.3278 56.5583 14.8093 54.8041C15.0677 53.8741 15.7254 53.1677 16.43 52.5319C17.2404 51.802 18.2034 51.3193 19.2486 51.0132C20.7283 50.5894 22.2081 50.2244 23.7583 50.1302C24.3925 50.0949 25.0384 49.9536 25.6726 49.9889C27.1993 50.0713 28.7378 50.1891 30.2528 50.3539C31.2275 50.4599 32.214 50.5894 33.1653 50.8366C34.5629 51.2016 35.9487 51.6136 37.2992 52.1081C38.826 52.6614 40.3174 53.2972 41.8089 53.9447C42.7954 54.3803 43.735 54.8983 44.6862 55.3928C46.3539 56.2522 48.0216 57.1352 49.701 57.9947C50.3117 58.3125 50.9223 58.6186 51.533 58.9247C51.6152 58.9601 51.6975 59.0307 51.7797 59.0307C51.9441 59.0307 52.1085 58.9954 52.2729 58.9601C52.2142 58.8188 52.179 58.654 52.085 58.5362C51.6622 58.0182 51.2159 57.5002 50.7932 56.9822C50.5935 56.7349 50.5818 56.4877 50.7227 56.1934C50.8049 56.0168 50.8049 55.7813 50.7932 55.5812C50.7579 55.1809 50.6992 54.7806 50.6287 54.3921C50.5935 54.2273 50.523 54.0507 50.4174 53.9212C50.0415 53.4502 49.7832 52.9793 49.8301 52.3318C49.8889 51.6725 49.8301 51.0132 49.8536 50.3539C49.8771 49.7652 49.9711 49.1766 50.0063 48.5879C50.0063 48.4466 49.9006 48.3054 49.8536 48.1641C49.7127 48.2347 49.5365 48.2583 49.4426 48.3642C48.4209 49.5062 47.1173 50.0125 45.6258 50.036C44.3926 50.0596 43.136 50.0949 41.9146 49.9301C40.9164 49.7888 39.9416 49.4003 38.9904 49.0471C37.6985 48.5761 36.5711 47.8344 35.5728 46.869C34.6568 45.9861 33.8465 45.0089 33.271 43.8551C32.9422 43.1958 32.6133 42.5483 32.2493 41.9125C31.9322 41.3592 31.4859 40.9001 30.8635 40.6764C29.6656 40.2525 28.8083 39.3695 27.9275 38.5337C26.8 37.4623 25.7196 36.3438 24.6743 35.1901C24.0754 34.5308 23.5939 33.7655 23.0537 33.0474C22.6074 32.4469 22.5722 32.4352 21.891 32.7413C20.9397 33.1769 20.0002 33.636 19.0489 34.0716C18.908 34.1423 18.7553 34.1776 18.6144 34.2247C18.5792 34.1776 18.5439 34.1305 18.5205 34.0834L18.4382 34.1069ZM22.2081 29.0798C22.4547 29.3859 22.6779 29.6449 22.8892 29.9157C23.2651 30.3984 23.5469 30.4926 24.1106 30.3042C24.3103 30.2336 24.4982 30.1629 24.6978 30.0805C25.2616 29.8568 25.8253 29.6331 26.4007 29.433C26.5064 29.3977 26.6591 29.5154 26.7883 29.5507C26.7413 29.6802 26.7178 29.8568 26.6239 29.9157C25.9662 30.3631 25.285 30.7869 24.6039 31.199C24.3455 31.3638 24.2163 31.5757 24.2985 31.8818C24.3573 32.082 24.4277 32.2703 24.5334 32.4587C25.2263 33.742 26.0954 34.884 27.1641 35.8729C28.3033 36.9325 29.2428 38.1922 30.5699 39.0399C31.0749 39.3578 31.2041 39.3813 31.5211 38.8986C32.0496 38.0863 32.6838 37.3799 33.5764 36.9678C34.1283 36.7088 34.692 36.4616 35.2675 36.3203C36.0544 36.1319 36.853 36.0377 37.6868 35.9082C37.4989 35.4962 37.2875 35.1312 37.1583 34.7427C37.0291 34.366 36.6181 34.0716 36.7238 33.5772C37.4519 34.2835 38.1331 34.9664 38.8729 35.6845C38.9199 35.5315 38.9551 35.4844 38.9434 35.4491C38.7437 34.9075 38.5089 34.3777 38.3327 33.8362C38.274 33.6713 38.3562 33.4594 38.3797 33.2711C38.5089 33.3417 38.6615 33.4006 38.7555 33.4947C39.0491 33.8008 39.2957 34.154 39.6011 34.4601C39.9416 34.8016 40.2352 34.7662 40.5523 34.4013C40.6698 34.2718 40.7637 34.1069 40.8342 33.9539C41.163 33.2593 41.4566 32.5411 41.8089 31.8465C42.6075 30.2336 43.6528 28.7973 45.203 27.8436C46.5653 27.0195 47.9863 26.266 49.3956 25.5125C49.8536 25.2653 50.2882 25.489 50.6875 25.748C51.0046 25.9599 50.9811 26.3013 50.8989 26.6074C50.7462 27.2079 50.5465 27.7965 50.3586 28.3852C50.206 28.8443 49.9711 29.2917 50.2647 29.798C50.3234 29.9039 50.2294 30.21 50.1355 30.2571C49.4543 30.6221 48.7262 30.9046 47.9276 30.7634C47.1173 30.6221 46.3774 30.2924 45.7315 29.7627C45.2969 29.4095 44.8741 29.4919 44.5453 29.9392C43.9111 30.7751 43.2535 31.5757 42.6545 32.4352C42.3374 32.8943 42.0673 33.4006 41.8677 33.9186C41.6798 34.4366 41.9381 34.7427 42.4784 34.6721C43.3239 34.5661 44.1695 34.4366 45.0033 34.2365C46.7649 33.8126 48.3034 32.9532 49.607 31.6581C49.7832 31.4815 50.0063 31.352 50.2294 31.2461C50.2999 31.2108 50.5583 31.3403 50.5583 31.3873C50.5583 31.7523 50.57 32.1408 50.4643 32.4823C50.0885 33.6125 49.0198 33.9303 48.0685 34.3071C47.176 34.6485 46.2247 34.8487 45.2969 35.0841C43.8642 35.4491 42.4196 35.7787 40.9986 36.1672C40.247 36.3792 39.4954 36.6264 38.8025 36.9678C38.3444 37.1915 38.0274 37.6507 37.9921 38.2158C37.9686 38.6396 37.8395 38.6867 37.4636 38.4512C37.0878 38.2158 36.7003 37.9803 36.301 37.8155C35.244 37.3681 34.3632 37.7566 33.5529 38.4277C33.2475 38.6867 33.2475 39.0163 33.5529 39.1576C33.8347 39.2871 34.1401 39.4402 34.4337 39.4402C35.7138 39.4166 36.9939 39.3578 38.2622 39.2754C38.6263 39.2518 38.8494 39.2754 39.0139 39.6874C39.2487 40.2643 39.4249 40.9118 40.0238 41.2768C41.0456 41.9125 42.1143 41.7595 43.1947 41.5123C43.6058 41.4181 44.0051 41.1944 44.4748 41.3003C44.24 41.9596 43.6997 42.2657 43.1947 42.4894C42.4666 42.8073 41.6915 42.9368 40.8694 42.7131C39.695 42.3952 38.638 41.9361 37.9099 40.9001C37.7572 40.6764 37.4519 40.4527 37.2053 40.4409C35.8899 40.3703 34.5746 40.3703 33.2593 40.3585C33.1301 40.3585 33.0126 40.382 32.813 40.4056C32.9187 40.594 32.9657 40.7235 33.0479 40.8412C33.7173 41.783 34.4102 42.7131 35.0561 43.6667C36.3362 45.5504 37.9217 47.0692 40.0826 47.9286C41.3509 48.4349 42.6663 48.7292 44.0286 48.7057C45.0503 48.6939 46.0838 48.5644 47.0703 48.3289C47.8102 48.1641 48.5266 47.8344 48.9963 47.1398C49.2429 46.7749 49.5718 46.4217 50.1003 46.4805C50.8636 46.5629 51.6387 46.6571 52.4021 46.7631C53.8114 46.9632 55.2089 47.1751 56.6182 47.3753C57.6987 47.5283 58.7791 47.6814 59.8713 47.8344C60.118 47.8698 60.1532 47.9875 60.071 48.2112C59.8831 48.7174 59.3194 49 58.7674 48.9058C58.1802 48.7998 57.593 48.7174 57.0058 48.6468C55.5378 48.4937 54.0698 48.3525 52.6135 48.1994C52.179 48.1523 51.8149 48.27 51.4978 48.5408C51.1455 48.8352 51.2042 49.2472 51.2394 49.624C51.2747 49.9536 51.5565 49.9889 51.8384 50.0243C52.2142 50.0713 52.59 50.1655 52.9776 50.2244C53.6822 50.3303 54.3868 50.4481 55.0915 50.5305C56.2894 50.66 57.4755 50.7777 58.6734 50.8837C59.0023 50.919 59.2724 50.8955 59.566 50.6364C59.9066 50.3186 60.3528 50.0831 60.7874 49.9301C61.7856 49.5651 62.7956 49.259 63.8056 48.9176C64.7803 48.5879 65.7551 48.2465 66.7299 47.8933C67.2231 47.7167 67.7164 47.5166 68.2096 47.3164C68.4328 47.234 68.468 47.0927 68.3036 46.9044C67.8925 46.3863 67.505 45.833 67.0587 45.3385C66.9295 45.1855 66.6359 45.056 66.448 45.0795C65.8138 45.1855 65.1914 45.3739 64.5572 45.5387C63.1009 45.9036 61.6447 46.2922 60.1767 46.6218C60.0475 46.6571 59.7891 46.4452 59.6952 46.2922C59.6482 46.2215 59.8244 45.9154 59.9653 45.8566C60.435 45.6682 60.9283 45.5504 61.3981 45.4092C63.0305 44.8912 64.6747 44.3849 66.3071 43.8669C66.1309 43.1487 65.3088 42.3717 64.6159 42.3835C63.3241 42.3835 62.0322 42.5012 60.7404 42.6072C60.2237 42.6543 59.7187 42.8073 59.2137 42.8897C59.108 42.9015 58.9788 42.8191 58.8613 42.772C58.9201 42.6425 58.9435 42.4777 59.0492 42.3952C59.1784 42.2893 59.3546 42.2187 59.519 42.1598C60.5407 41.7948 61.5507 41.4298 62.5842 41.0884C62.8778 40.9825 63.0187 40.8883 62.7956 40.5586C62.1379 39.5932 61.492 39.5579 60.4233 39.7934C59.613 39.97 58.8144 40.1937 58.004 40.3585C57.3464 40.488 56.6769 40.5233 56.0193 40.6528C54.9036 40.8647 53.8584 41.3003 52.9658 42.0067C52.2612 42.5718 51.6505 43.2429 51.0163 43.8787C49.7127 45.1973 48.2095 46.1744 46.4009 46.6689C44.5923 47.1634 42.8307 47.1045 41.0808 46.4217C40.1178 46.0449 39.1665 45.6446 38.2035 45.2561C37.769 45.0795 37.722 44.9382 37.9921 44.5615C38.2035 44.2554 38.4384 43.9611 38.6028 43.6314C38.7085 43.396 38.8494 43.2311 39.0491 43.3724C39.1783 43.4666 39.284 43.7609 39.2487 43.9258C39.1196 44.432 39.2253 44.7734 39.7185 44.9618C40.6463 45.3268 41.6328 45.5269 42.6193 45.5504C43.5118 45.5622 44.4044 45.5034 45.2852 45.3856C45.8959 45.3032 46.5301 45.1619 47.0703 44.8912C48.4091 44.2319 49.6188 43.3606 50.7462 42.3835C52.4256 40.9354 54.2224 39.6286 55.5143 37.7566C56.1719 36.8148 56.2424 35.8729 56.078 34.8369C56.0428 34.6132 55.9371 34.3777 55.8079 34.1894C55.3029 33.4947 54.5395 33.4241 53.7644 33.4594C53.5295 33.4594 53.2946 33.5654 53.0598 33.5772C52.9658 33.5772 52.8601 33.4947 52.7779 33.4359C52.7662 33.4359 52.8131 33.271 52.8719 33.2357C53.7996 32.6235 54.7274 32.0231 55.667 31.4344C55.8196 31.3403 56.0075 31.3285 56.3011 31.2461C56.2307 31.5404 56.2307 31.7523 56.1367 31.8936C55.7139 32.5293 55.9253 33.0356 56.3481 33.5889C56.8766 34.2718 57.2524 35.0135 57.2524 35.9553C57.2524 37.0031 56.7357 37.8155 56.3129 38.6985C56.2424 38.8398 56.1837 38.981 56.1132 39.1576C56.2776 39.1576 56.3833 39.1812 56.489 39.1812C57.6987 39.0634 58.9083 38.9457 60.118 38.8044C60.435 38.7691 60.8461 38.7809 61.0105 38.4041C61.1867 38.0039 61.3158 37.58 61.4568 37.1562C61.7621 36.2497 62.044 35.3314 62.3493 34.4248C62.502 33.9539 62.8543 33.895 63.2889 34.0128C63.512 34.0716 63.7586 34.1423 63.9935 34.1187C65.3206 33.9892 66.5302 33.6007 67.3523 32.4469C67.916 31.6699 68.0804 30.681 67.6929 29.8451C67.0352 28.4205 65.7199 27.8436 64.2754 27.6082C63.3476 27.4551 62.4315 27.6788 61.5977 28.1733C61.2689 28.3616 61.1162 28.2557 61.0927 27.8789C61.0457 26.996 60.987 26.1247 60.9283 25.2418C60.9048 24.9239 60.7639 24.7237 60.4116 24.7944C60.0945 24.8532 59.7774 24.9357 59.4603 25.0063C58.6499 25.1829 57.8513 25.3713 57.041 25.5243C56.9118 25.5479 56.6887 25.4419 56.63 25.3242C56.2894 24.6649 56.3951 24.0174 56.9001 23.4758C57.3111 23.0284 57.7339 22.5928 58.1684 22.1336C58.098 22.0866 58.0275 22.0277 57.9453 21.9924C57.1467 21.6745 56.3481 21.3684 55.5495 21.0505C55.4438 21.0034 55.3616 20.8739 55.2677 20.7915C55.3968 20.7326 55.526 20.6502 55.667 20.6149C55.7374 20.6031 55.8314 20.6738 55.9136 20.6856C56.7239 20.8739 57.546 21.0741 58.3563 21.2624C58.7204 21.3448 59.0845 21.3919 59.4485 21.4744C59.6952 21.5332 59.7774 21.6863 59.6717 21.9453C59.4955 22.3927 59.3428 22.8636 59.1667 23.3463C59.2724 23.3227 59.3781 23.311 59.4603 23.2756C60.6464 22.7812 61.8443 22.2985 63.0305 21.7687C64.0757 21.3095 65.1209 20.8386 66.1192 20.3088C66.4363 20.144 66.6359 19.7555 66.8943 19.4729C66.859 19.4376 66.8356 19.4023 66.8003 19.367C66.0957 19.367 65.4028 19.367 64.6981 19.367C64.2284 19.367 64.1109 19.2021 64.2519 18.7665C64.3106 18.5899 64.3576 18.4016 64.3928 18.2132C64.6159 17.2949 64.8391 16.3648 65.0622 15.4465C64.9683 15.4347 64.933 15.4112 64.9095 15.423C63.6177 15.9763 62.3376 16.5414 61.0457 17.1065C60.7991 17.2125 60.5995 17.3067 60.435 16.9652C59.5542 15.1993 58.6499 13.4451 57.7574 11.6909C57.593 11.3612 57.4051 11.0433 57.2172 10.7137C55.7609 11.6791 54.3516 12.6209 52.9306 13.551C52.8131 13.6217 52.5665 13.657 52.4961 13.5863C51.6505 12.7975 50.8284 11.9852 49.9946 11.1728C48.9493 10.1486 47.9276 9.10077 46.8706 8.08828C46.6123 7.84105 46.2834 7.66445 45.9311 7.40544C45.9194 7.59381 45.9076 7.66445 45.9076 7.73509C45.9311 8.77112 45.9781 9.80716 45.9663 10.8314C45.9546 11.891 45.1325 12.3619 44.1812 11.891C44.0168 11.8086 43.8642 11.7144 43.6997 11.6438C42.7837 11.267 41.8559 10.9256 40.9516 10.5253C40.1061 10.1604 39.2957 9.7483 38.4619 9.37156C36.2892 8.40616 34.1166 7.44076 31.9439 6.48713C31.6503 6.35763 31.3332 6.27522 31.0279 6.16926C31.2628 6.64018 31.5329 7.0287 31.8382 7.37012C32.4842 8.07651 33.1653 8.74758 33.8112 9.45397C34.234 9.91312 34.6686 10.384 34.9974 10.9021C35.7138 12.0441 35.3262 13.0095 33.9522 13.139C33.271 13.2096 32.5781 13.1507 31.8852 13.139C31.2041 13.1272 30.5112 13.0919 29.83 13.0566C28.409 12.9741 26.9762 12.8682 25.5552 12.7858C24.4982 12.7269 23.4412 12.6798 22.3843 12.6327C21.9615 12.6209 21.5387 12.6327 21.1159 12.6327C21.1159 12.6563 21.0924 12.6916 21.0924 12.7151C23.2416 14.0455 25.379 15.3876 27.5282 16.718C27.5282 16.7651 27.5164 16.8122 27.5047 16.8593C24.0519 18.2721 20.5992 19.6848 17.1347 21.0976C17.3578 21.2271 17.5574 21.2507 17.7453 21.3095C18.7084 21.5803 19.6714 21.8746 20.6461 22.1219C22.349 22.5693 24.0637 22.9813 25.7783 23.4169C25.884 23.4405 26.0014 23.5582 26.0484 23.6524C26.0719 23.6995 25.9545 23.8643 25.8722 23.9114C24.5334 24.6178 23.1946 25.3124 21.8558 26.0188C21.4565 26.2307 21.0572 26.4544 20.6344 26.6781C20.7166 26.8429 20.7753 26.9842 20.834 27.1137C21.1394 27.7024 21.3625 27.7965 21.9732 27.4904C22.2551 27.3492 22.5134 27.1726 22.7836 27.0313C24.2163 26.266 25.6491 25.489 27.0936 24.7591C28.0332 24.2881 29.0079 24.4176 29.9944 24.7944C29.8887 24.9357 29.8417 25.0769 29.7478 25.124C27.258 26.4309 24.7566 27.7259 22.2316 29.0563L22.2081 29.0798ZM71.4275 66.9187C72.2613 66.9187 72.7663 66.7304 72.9542 66.2123C73.2948 65.2823 73.5649 64.3286 73.7998 63.375C74.0112 62.5273 73.8233 61.7032 73.5179 60.9026C73.377 60.5494 73.2478 60.1374 72.9777 59.9019C72.8368 59.7724 72.414 59.9608 72.1204 60.0079C71.0282 60.1845 69.9243 60.3611 68.8321 60.5377C68.1626 60.6554 67.4932 60.7849 66.8238 60.9026C65.8021 61.0675 64.7803 61.2205 63.7586 61.3971C62.96 61.5266 62.1614 61.6797 61.3628 61.8209C60.8109 61.9151 60.2471 61.9858 59.6952 62.1035C59.5542 62.1388 59.3781 62.3154 59.3428 62.4567C59.1902 63.116 59.0962 63.7988 58.9553 64.4699C58.7791 65.2822 59.3663 65.7414 59.9888 65.8356C60.4938 65.918 61.0105 65.9769 61.5155 66.0475C62.7016 66.2241 63.8878 66.4007 65.0622 66.5655C65.7551 66.6597 66.4597 66.6597 67.1409 66.8128C68.1392 67.0365 68.9025 66.6126 69.1257 65.6472C69.3018 64.8937 69.4897 64.1285 70.0887 63.5751C70.2178 63.4574 70.4175 63.3868 70.5819 63.3044C70.6406 63.4927 70.7933 63.6811 70.7581 63.8459C70.6641 64.411 70.5467 64.9879 70.3588 65.5177C70.0417 66.3889 70.1944 66.7186 71.1104 66.8834C71.2396 66.9069 71.3805 66.8952 71.4157 66.8952L71.4275 66.9187ZM73.9172 58.2301C73.8115 57.5473 73.6824 56.9704 73.6354 56.3935C73.6119 56.0286 73.4592 56.005 73.1774 56.0521C71.8268 56.264 70.4762 56.4642 69.1257 56.6643C67.5989 56.888 66.0839 57.1117 64.5572 57.3354C63.1949 57.5355 61.8326 57.7357 60.4703 57.9358C59.7069 58.0418 58.9553 58.1477 58.6382 59.0307C58.6147 59.1013 58.4738 59.1955 58.4503 59.1838C58.3446 59.1131 58.2506 59.0307 58.1802 58.9247C58.0862 58.7835 58.051 58.548 57.9336 58.4891C57.5577 58.3125 57.1585 58.1359 56.7592 58.0653C56.2776 57.9829 55.7844 57.9829 55.2911 57.9711C54.6452 57.9594 53.9993 57.9711 53.3181 57.9711C53.6352 58.5951 53.9053 59.2191 54.2342 59.8195C55.0797 61.3736 55.9488 62.9158 56.8061 64.4581C56.9118 64.6465 57.0645 64.8349 57.2289 64.9644C57.3111 65.0232 57.5343 64.9879 57.6165 64.9173C57.7457 64.8113 57.8513 64.6347 57.8866 64.4699C58.098 63.6222 58.2741 62.7746 58.4738 61.9151C58.5912 61.4207 58.6969 60.9026 59.3076 60.7731C59.8009 60.6672 60.2941 60.5612 60.7874 60.4906C62.2906 60.2551 63.7938 60.0432 65.2853 59.796C66.3658 59.6076 67.4345 59.3721 68.515 59.1602C69.3253 58.9954 70.1356 58.8306 70.9577 58.6893C71.909 58.5362 72.872 58.4185 73.9172 58.2655V58.2301ZM52.9306 77.126C52.7779 76.9259 52.6722 76.7846 52.5665 76.6433C52.3786 76.3843 52.2142 76.09 51.9793 75.8545C51.8266 75.7015 51.58 75.6073 51.3686 75.5955C51.2747 75.5955 51.1455 75.8663 51.0868 76.0311C51.028 76.2077 51.028 76.4079 50.9928 76.5962C50.9576 76.7257 50.9106 76.9612 50.8519 76.973C50.711 76.9848 50.5348 76.9259 50.4174 76.8317C50.0181 76.5256 49.654 76.1724 49.2547 75.8545C48.9846 75.6426 48.691 75.4189 48.3152 75.6073C47.8689 75.831 47.4226 76.0665 46.9998 76.3255C46.6827 76.5256 46.6475 77.0201 46.9176 77.2791C47.082 77.4204 47.2817 77.5499 47.4813 77.6205C48.9141 78.0914 50.3469 78.4799 51.8501 78.7036C53.6939 78.9744 55.5378 79.2334 57.3933 79.2452C58.2389 79.2452 59.0962 79.2099 59.9418 79.151C60.94 79.0804 61.9383 79.0097 62.913 78.8567C64.2519 78.6448 65.5789 78.3504 66.906 78.0679C67.4815 77.9502 68.0569 77.7971 68.6089 77.5852C68.8673 77.491 69.1491 77.2791 69.2666 77.0436C69.4897 76.608 69.2079 75.7604 68.7733 75.4778C67.9865 74.9715 67.1409 74.948 66.2718 75.3012C64.933 75.8663 63.5707 76.4314 62.1262 76.5021C60.5407 76.5845 58.9318 76.7022 57.3816 76.1842C56.9236 76.0311 56.5478 75.8663 56.3481 75.3718C56.1954 74.9951 55.8666 74.8891 55.3616 74.9598C55.5847 75.5013 55.7961 75.9958 55.9958 76.4903C56.0428 76.6198 56.0428 76.7728 56.0662 76.9141C55.9371 76.9141 55.7844 76.9377 55.667 76.8906C55.2207 76.7257 54.7861 76.5374 54.3516 76.3372C53.7174 76.0429 53.5178 76.1135 53.1772 76.7257C53.1302 76.8199 53.0598 76.8906 52.9071 77.0907L52.9306 77.126ZM71.4862 51.6725C71.3101 51.4135 71.1691 51.2251 71.0517 51.025C70.5702 50.2126 70.1122 49.3885 69.5954 48.5997C69.5132 48.4702 69.2196 48.376 69.0787 48.4231C67.7281 48.8587 66.3893 49.3179 65.0387 49.777C63.6999 50.2362 62.3493 50.6953 61.0105 51.1662C60.6347 51.2957 60.2589 51.437 60.0592 51.8373C59.8948 52.1552 59.5895 52.3436 59.2137 52.3318C58.7087 52.32 58.2037 52.2729 57.6987 52.2258C56.8414 52.1434 55.984 52.0492 55.1267 51.955C54.5278 51.8844 53.9288 51.8255 53.3299 51.7431C52.7074 51.6607 52.085 51.5783 51.3569 51.4841C51.4861 52.061 51.58 52.5555 51.7092 53.0264C51.7444 53.1441 51.9323 53.2736 52.0615 53.2972C52.7779 53.4149 53.4943 53.4973 54.2107 53.5797C55.5965 53.7446 56.994 53.8505 58.3798 54.0742C59.1902 54.2037 59.7891 54.1449 60.2119 53.3443C60.5173 52.7792 60.7052 52.8263 61.1867 53.2383C61.3746 53.4031 61.6564 53.5915 61.8796 53.568C62.6899 53.4856 63.4885 53.3207 64.2754 53.1677C65.7199 52.8733 67.1526 52.5555 68.5972 52.2494C69.525 52.0492 70.4645 51.8726 71.4627 51.6725H71.4862ZM52.2259 54.3803C52.2259 54.7924 52.2142 55.0867 52.2259 55.381C52.2729 56.1934 52.5195 56.4288 53.3534 56.4877C53.8114 56.523 54.2694 56.5583 54.7274 56.5937C55.9253 56.6996 57.1232 56.7938 58.3211 56.8998C58.4033 56.8998 58.4973 56.9469 58.5795 56.9469C58.7791 56.9469 59.0375 57.0175 59.1549 56.9115C59.4368 56.6879 59.6834 56.4053 59.8831 56.111C60.1649 55.6871 60.5995 55.6283 60.9165 56.0403C61.0457 56.1934 61.1397 56.3935 61.1867 56.5937C61.2454 56.8409 61.3041 56.9469 61.5977 56.8644C62.1027 56.7349 62.6077 56.6643 63.1244 56.5819C64.4515 56.37 65.7903 56.1816 67.1174 55.9461C67.9865 55.7931 68.8438 55.5694 69.7246 55.4164C70.6759 55.2398 71.6506 55.1102 72.6019 54.9572C72.7076 54.9454 72.8015 54.8866 72.9542 54.8277C72.6254 54.2626 72.3318 53.7563 72.0382 53.2383C71.862 52.9322 71.6271 52.8734 71.2866 52.944C69.8655 53.2383 68.4445 53.5209 67.0117 53.7799C65.7199 54.0153 64.4163 54.2037 63.1127 54.4156C62.5372 54.5098 61.95 54.5805 61.3746 54.6982C61.1984 54.7335 61.0222 54.8512 60.8813 54.9807C60.5525 55.2633 60.2002 55.4634 59.7421 55.4046C59.1902 55.3339 58.6382 55.2398 58.0745 55.1691C57.1232 55.0396 56.1602 54.9101 55.2089 54.7806C54.5043 54.6864 53.7996 54.5922 53.095 54.5098C52.8249 54.4745 52.543 54.4392 52.1907 54.3921L52.2259 54.3803ZM51.2394 71.6515C51.2394 71.6515 51.2512 71.7339 51.2629 71.781C52.2494 72.0871 53.2359 72.3932 54.2224 72.6876C54.9975 72.9113 55.7844 73.2291 56.583 73.288C57.6869 73.3822 58.8144 73.2645 59.93 73.2409C61.5038 73.2174 63.0892 73.2409 64.6629 73.1938C65.7551 73.1703 66.8003 72.9113 67.3406 71.8517C67.6576 71.2395 67.7986 70.5331 67.9747 69.8502C68.0335 69.6383 68.01 69.2498 67.8808 69.1792C67.6694 69.0614 67.3406 69.0732 67.0822 69.1203C66.8473 69.1674 66.6594 69.344 66.9295 69.5912C67.3053 69.9562 67.1644 70.3447 66.9295 70.6744C66.7534 70.9216 66.5067 71.1453 66.2366 71.2983C64.9917 72.0165 63.6647 72.4874 62.1967 72.2284C61.1749 72.04 60.482 71.6162 60.7052 70.5566C60.8109 70.0504 61.0222 69.5677 61.1867 69.0732C59.9653 68.6376 57.0997 68.4021 56.3129 68.826C56.3951 68.9202 56.4655 69.0026 56.5478 69.085C56.8531 69.3558 57.1584 69.603 57.452 69.8856C57.6987 70.121 57.9453 70.3683 57.7222 70.8745C56.8883 70.4389 56.078 70.0033 55.1854 69.5324C55.2324 69.862 55.2677 70.0857 55.2911 70.2976C55.3264 70.5331 55.3616 70.7685 55.3734 71.004C55.3734 71.11 55.3264 71.2159 55.2911 71.3219C55.1854 71.2866 55.0563 71.2866 54.9858 71.2159C54.7157 70.9569 54.4808 70.6744 54.2224 70.4036C53.8701 70.0386 53.3886 70.0386 53.001 70.3565C52.59 70.6861 52.1437 70.9922 51.7209 71.3101C51.5565 71.4278 51.3921 71.5338 51.216 71.6515H51.2394ZM67.9865 79.0804C66.3306 79.3865 64.6747 79.7044 63.007 79.9751C61.3158 80.2577 59.613 80.3519 57.8983 80.3519C56.1719 80.3519 54.4573 80.3519 52.7544 80.0575C51.1102 79.775 49.4661 79.4454 47.8219 79.1392C48.4678 79.5042 49.1607 79.8103 49.8536 80.0929C51.533 80.7757 53.3064 81.1289 55.0915 81.1878C57.041 81.2584 59.0023 81.4115 60.9518 81.0465C62.1379 80.8228 63.3476 80.658 64.522 80.399C65.7316 80.14 66.9178 79.7632 67.9982 79.0568L67.9865 79.0804ZM72.6136 73.5823C71.7563 73.5823 70.6054 73.9237 70.1826 74.2534C70.1122 74.3123 70.0887 74.5242 70.1474 74.6184C70.488 75.1599 70.8168 75.7015 71.2161 76.2077C71.4157 76.4667 71.5919 76.8435 72.0617 76.714C72.6959 76.5256 73.3418 76.3255 73.9877 76.2195C75.1151 76.0311 75.0447 75.2306 74.5984 74.5948C74.0582 73.8296 73.2361 73.653 72.6136 73.5941V73.5823ZM64.4633 68.0607C62.0205 67.0129 59.566 66.7303 56.994 66.8599C57.4755 67.4956 63.512 68.4846 64.4633 68.0607ZM58.8731 74.842C60.1414 75.6309 64.569 75.1717 65.391 74.1474C63.1832 74.0886 61.0222 74.1239 58.8731 74.842ZM70.9108 78.6095C70.9108 78.6095 70.9108 78.7272 70.9108 78.7743C71.1574 78.9038 71.3805 79.0922 71.6389 79.151C72.5079 79.3276 73.2948 79.0215 74.0347 78.5977C74.293 78.4564 74.4927 78.1856 74.6689 77.9384C74.7511 77.8206 74.7276 77.6087 74.7511 77.4439C74.5866 77.4204 74.3987 77.3497 74.2461 77.3968C73.3888 77.6441 72.5432 77.9148 71.7094 78.1974C71.4275 78.2916 71.1691 78.4682 70.9108 78.6095ZM68.9025 73.0879L69.02 73.1938C69.8186 72.8406 70.6289 72.4992 71.4392 72.146C71.0987 71.6398 70.1709 71.1688 69.6424 71.2866C69.4545 71.3219 69.2196 71.5102 69.1726 71.6751C69.0317 72.1342 68.9847 72.6287 68.9025 73.0996V73.0879ZM47.7514 29.5625C48.045 29.3624 48.4326 29.2329 48.6205 28.9503C48.8789 28.5736 48.7145 28.1733 48.3974 27.8319C48.1273 27.5375 47.8219 27.4198 47.4578 27.6082C47.1173 27.7848 47.0233 28.1262 47.0585 28.4912C47.0703 28.656 47.1173 28.809 47.129 28.9739C47.1642 29.3153 47.3404 29.4801 47.7514 29.5625ZM54.105 73.653C53.2007 73.1114 52.0733 73.1703 51.6387 73.7707C51.9793 74.5477 53.3181 74.5006 54.105 73.653ZM67.5754 68.0725C68.468 68.6611 69.8655 68.5316 70.2648 67.8841C69.3488 67.2719 68.5385 67.943 67.5754 68.0725ZM61.9383 70.8392C62.5725 71.5927 63.97 71.6751 64.6042 70.9687C63.7586 70.9216 62.913 70.8863 61.9383 70.8392ZM71.357 69.8856C71.357 69.8856 71.404 69.7914 71.4157 69.7443C70.7346 69.5206 70.0417 69.2969 69.3371 69.0732C69.4545 69.9915 69.4545 70.0033 70.2531 69.9797C70.6171 69.9797 70.9812 69.9209 71.3453 69.8856H71.357ZM65.4498 70.0504C64.6512 69.968 63.923 69.4382 62.9835 69.5912C63.7116 70.1681 64.9683 70.4036 65.4498 70.0504ZM132.931 23.7466C133.19 23.9114 133.448 24.0762 133.706 24.2293C134.235 24.5354 134.763 24.8415 135.303 25.1476C136.032 25.5596 136.396 26.4073 136.114 27.1843C136.055 27.3374 135.773 27.514 135.621 27.4904C135.033 27.3962 134.681 27.5375 134.434 28.1262C134.27 28.5265 134.364 28.7148 134.669 28.8914C135.574 29.4212 136.466 29.951 137.37 30.4926C137.535 30.5985 137.676 30.7398 137.828 30.8576C137.805 30.9046 137.781 30.94 137.758 30.9871C137.159 30.8576 136.56 30.7634 135.973 30.575C135.362 30.3866 134.775 30.1158 134.188 29.8686C133.847 29.7273 133.589 29.8215 133.377 30.1276C133.201 30.3749 133.025 30.6103 132.825 30.834C132.532 31.1637 132.508 31.4227 132.849 31.717C133.471 32.2468 134.129 32.7413 134.763 33.2475C135.045 33.4712 135.303 33.7184 135.574 33.9421C135.538 33.9892 135.515 34.0363 135.48 34.0834C135.374 34.0599 135.268 34.0481 135.174 34.001C134.153 33.5418 133.131 33.0945 132.121 32.6235C131.451 32.3174 131.369 32.3527 130.935 32.9179C130.265 33.8126 129.561 34.6838 128.856 35.555C127.494 37.2504 125.885 38.6632 124.182 39.9935C124.029 40.1113 123.865 40.2408 123.689 40.2879C122.585 40.6057 121.868 41.3592 121.41 42.3717C120.729 43.8904 119.895 45.315 118.709 46.4688C117.699 47.4459 116.583 48.3054 115.256 48.8234C114.152 49.2472 113.037 49.5769 111.874 49.8123C110.606 50.0596 109.337 50.0243 108.092 49.9183C106.754 49.8006 105.485 49.3061 104.558 48.223C104.475 48.117 104.311 48.0817 104.182 48.011C104.123 48.1405 103.994 48.27 104.006 48.3878C104.041 49.0824 104.146 49.7888 104.146 50.4834C104.146 51.4017 104.475 52.3789 103.959 53.2148C103.559 53.8505 103.371 54.4745 103.313 55.2044C103.289 55.6047 103.183 55.9697 103.371 56.37C103.43 56.4995 103.277 56.782 103.148 56.9469C102.69 57.5591 102.209 58.1477 101.739 58.7482C101.774 58.7952 101.809 58.8541 101.845 58.9012C102.385 58.7011 102.949 58.5362 103.465 58.2772C105.309 57.3471 107.129 56.3817 108.95 55.4399C110.042 54.8748 111.122 54.2508 112.25 53.7446C113.753 53.0735 115.28 52.4142 116.842 51.8726C118.862 51.1662 120.929 50.554 123.066 50.295C124.053 50.1773 125.051 50.0713 126.037 49.9772C126.918 49.8947 127.823 49.7064 128.692 49.8006C130.535 49.9889 132.391 50.1655 134.176 50.7071C135.257 51.0367 136.278 51.4488 137.206 52.0963C138.157 52.7674 138.897 53.6504 139.191 54.7806C139.496 55.9461 139.649 57.147 139.848 58.3361C139.989 59.172 140.13 60.0079 140.201 60.8555C140.224 61.1616 140.048 61.4795 139.919 61.7739C139.907 61.8092 139.543 61.7739 139.496 61.7032C139.296 61.3147 139.097 60.9144 139.003 60.4906C138.709 59.1249 138.486 57.7357 138.169 56.3817C137.688 54.2508 136.126 53.1795 134.211 52.4966C133.565 52.2611 132.919 52.0139 132.274 51.802C131.921 51.6843 131.557 51.5901 131.193 51.5194C129.114 51.1545 127.024 51.1545 124.933 51.2957C123.724 51.3782 122.514 51.6019 121.328 51.8726C119.437 52.32 117.535 52.7792 115.691 53.4031C114.258 53.8976 112.919 54.6275 111.545 55.2868C109.584 56.2287 107.646 57.2176 105.673 58.1477C104.428 58.7364 103.113 59.1602 101.903 59.796C101.387 60.0667 100.999 60.6319 100.623 61.1263C99.8951 62.08 99.2257 63.0689 98.5328 64.0461C98.0161 64.776 97.9808 65.1645 98.4976 65.8709C99.2022 66.8481 99.9773 67.7428 100.917 68.5081C101.986 69.3911 102.972 70.3683 103.982 71.3336C104.264 71.5927 104.229 71.9105 103.982 72.2166C103.606 72.6758 103.641 72.9937 104.17 73.2645C105.051 73.7118 105.943 74.1239 106.848 74.5006C107.552 74.795 108.198 75.1128 108.539 75.8545C108.938 76.714 108.832 77.5145 108.41 78.3387C107.963 79.1981 107.176 79.6219 106.366 80.0105C105.039 80.6462 103.594 80.8699 102.173 81.2231C99.4371 81.8942 96.6772 81.9059 93.8939 81.8C92.8252 81.7529 91.7565 81.5998 90.6995 81.3761C89.4194 81.1171 88.1628 80.7522 86.9062 80.399C86.272 80.2224 85.673 79.9516 85.0389 79.7868C84.4517 79.6337 83.841 79.5631 83.2303 79.5042C82.3847 79.4218 81.5156 79.4571 80.6936 79.3041C79.7305 79.1157 78.8028 78.7625 78.0511 78.0797C77.9102 77.9502 77.7693 77.7265 77.7575 77.5381C77.6636 76.5727 77.4405 75.6073 77.7693 74.6301C78.1099 73.6294 78.7675 72.9466 79.6953 72.4874C80.811 71.9223 80.9637 71.6162 80.7053 70.38C80.3295 68.6023 79.9654 66.8128 79.5544 65.0468C79.2843 63.893 78.885 62.751 78.8497 61.5619C78.838 60.9733 78.9437 60.3728 79.0729 59.796C79.2138 59.2309 79.2725 58.7599 78.8028 58.2655C78.1568 57.5826 77.8632 56.7703 78.3213 55.8402C78.9554 54.5687 79.5779 53.2972 80.2473 52.0375C81.4334 49.8359 82.7958 47.7403 84.3107 45.7624C85.8727 43.7138 87.5404 41.7477 89.6191 40.1701C90.0888 39.8052 90.5821 39.4637 91.0636 39.1105C91.5098 38.7691 91.8504 38.3688 91.7682 37.7449C91.6978 37.2151 91.733 36.6499 91.5686 36.1672C91.3337 35.4962 90.6408 35.3549 90.0301 35.1312C89.2315 34.8369 88.4564 34.5072 87.6695 34.1658C87.2468 33.9892 86.8475 33.7537 86.4247 33.5654C85.4264 33.1298 84.7922 32.3527 84.5926 31.3285C84.4047 30.4219 84.4047 29.4801 84.9097 28.6207C85.2855 27.9967 85.814 27.5611 86.4364 27.2079C87.2937 26.7252 88.198 26.525 89.1845 26.5721C89.9949 26.6074 90.218 26.3602 90.2415 25.5479C90.2415 25.4184 90.2767 25.2653 90.2415 25.1476C89.8539 24.1469 90.2885 23.2403 90.5586 22.322C90.8874 21.2153 91.1928 20.1087 91.5216 19.0138C92.0031 17.3891 92.4494 15.7408 93.0248 14.1515C93.295 13.4215 93.8469 12.7975 94.2814 12.15C94.763 11.4319 95.268 10.7255 95.7495 10.0073C96.2545 9.23028 96.4893 9.15964 97.3232 9.5717C98.1335 9.98376 98.9556 10.384 99.7659 10.7843C100.541 11.1611 100.952 11.1258 101.598 10.5489C103.148 9.14787 104.687 7.73509 106.225 6.32231C106.648 5.9338 107.059 5.50996 107.494 5.12145C108.034 4.63875 108.703 4.65052 109.361 4.69761C109.678 4.72116 109.725 4.94485 109.725 5.20386C109.725 6.41649 109.725 7.62913 109.725 8.85354C109.725 9.46574 109.96 9.61879 110.5 9.35978C112.414 8.4768 114.317 7.58204 116.231 6.7226C116.901 6.41649 117.57 6.09862 118.369 6.14571C119.003 6.18103 119.39 6.52245 119.684 7.01693C119.954 7.48785 119.837 7.93523 119.555 8.37084C119.461 8.51212 119.402 8.74758 119.449 8.88886C119.484 8.98304 119.754 9.03013 119.919 9.03013C120.529 9.00659 121.14 8.93595 121.751 8.9124C122.009 8.9124 122.279 8.97127 122.538 9.05368C122.585 9.06545 122.62 9.33624 122.561 9.41865C122.197 9.94844 121.786 10.4429 121.434 10.9727C120.905 11.7733 120.94 11.7615 121.81 12.2089C123.031 12.8446 124.217 13.5393 125.438 14.175C127.388 15.1875 129.326 16.1882 131.311 17.1301C133.319 18.0837 135.362 18.9667 137.394 19.8614C137.946 20.0969 138.521 20.2499 138.885 20.7915C139.238 21.3095 139.203 21.5921 138.604 21.804C137.464 22.2043 136.325 22.581 135.174 22.946C134.423 23.1815 133.671 23.3816 132.919 23.6053C132.919 23.6524 132.919 23.6995 132.908 23.7466H132.931ZM116.09 38.4748C115.938 37.3446 115.374 36.6735 114.387 36.3909C113.636 36.179 112.872 36.0142 112.109 35.8141C110.782 35.4726 109.455 35.0959 108.116 34.7898C106.871 34.5072 105.673 34.0952 104.546 33.4947C103.583 32.9767 103.16 31.976 103.583 30.9635C103.947 31.2107 104.346 31.3991 104.616 31.7052C105.579 32.7413 106.801 33.3299 108.092 33.8008C108.738 34.0363 109.408 34.2482 110.089 34.3895C110.606 34.4955 111.158 34.5072 111.686 34.4955C112.015 34.4955 112.191 34.2365 112.156 33.9068C112.132 33.6949 112.074 33.4594 111.956 33.2828C111.475 32.5529 110.97 31.8347 110.453 31.1401C110.054 30.6103 109.619 30.1041 109.196 29.5861C108.95 29.28 108.68 29.3624 108.398 29.5272C108.198 29.6449 108.01 29.7862 107.811 29.9275C106.624 30.7516 105.403 30.7987 104.088 30.2336C103.653 30.0452 103.63 29.8097 103.782 29.433C103.841 29.28 103.9 29.068 103.853 28.915C103.63 28.1733 103.383 27.4316 103.125 26.6899C102.996 26.3249 102.925 25.9482 103.207 25.6538C103.583 25.2653 104.264 25.2064 104.698 25.4419C105.344 25.8069 105.979 26.1836 106.636 26.525C107.306 26.8782 108.022 27.1608 108.656 27.5611C110.23 28.5736 111.357 30.0099 112.168 31.6817C112.532 32.4234 112.861 33.1886 113.189 33.9421C113.483 34.6014 113.965 34.6956 114.481 34.1894C114.669 34.001 114.81 33.7655 114.998 33.5772C115.151 33.4123 115.409 33.1062 115.491 33.1415C115.879 33.3181 115.597 33.636 115.526 33.8715C115.386 34.3542 115.198 34.8251 115.01 35.3549C115.632 34.7662 116.184 34.2247 116.748 33.6949C116.865 33.5889 117.018 33.5418 117.159 33.4594C117.159 33.6242 117.182 33.8008 117.112 33.9303C116.842 34.519 116.536 35.0959 116.208 35.767C116.666 35.8258 117.041 35.8611 117.406 35.9436C118.157 36.0966 118.944 36.1908 119.649 36.4616C120.858 36.9207 121.81 37.7449 122.491 38.8633C122.643 39.1105 122.867 39.1694 123.101 39.0163C123.465 38.7809 123.853 38.5572 124.158 38.2629C125.274 37.1797 126.343 36.0613 127.447 34.9664C128.304 34.1069 128.962 33.0945 129.514 32.0113C129.725 31.5993 129.631 31.2932 129.232 31.0342C128.633 30.6574 128.046 30.2454 127.458 29.8451C127.294 29.7273 126.93 29.7038 127.106 29.4095C127.177 29.2917 127.529 29.327 127.752 29.3035C127.787 29.3035 127.834 29.3388 127.881 29.3506C128.504 29.5978 129.114 29.8451 129.737 30.0923C130.077 30.2336 130.441 30.3395 130.735 30.0452C131.076 29.7038 131.381 29.3153 131.722 28.9268C131.581 28.8443 131.51 28.7973 131.428 28.7619C130.195 28.1144 128.95 27.4787 127.717 26.8194C126.495 26.1836 125.298 25.5008 124.053 24.9003C123.442 24.606 122.773 24.453 122.138 24.2057C121.422 23.9349 120.717 23.6053 120.001 23.3463C118.087 22.6634 116.172 22.0159 114.258 21.3331C112.673 20.768 111.087 20.1911 109.502 19.626C108.468 19.261 107.447 18.8843 106.401 18.5428C106.178 18.4722 105.896 18.4369 105.661 18.4957C105.027 18.6606 104.417 18.8725 103.794 19.0844C102.033 19.6848 100.142 19.9203 98.4858 20.8621C98.4623 20.8739 98.4271 20.8622 98.4036 20.8739C97.5346 21.2271 96.6655 21.5803 95.7377 21.9571C95.9843 22.169 96.2075 22.3338 96.4071 22.5339C97.0883 23.2286 97.9104 23.8643 97.4171 25.0534C97.2997 25.3477 97.1588 25.4301 96.8886 25.3713C95.8786 25.1593 94.8569 24.9592 93.8587 24.7002C93.1658 24.5118 93.0601 24.5236 93.0014 25.383C92.9426 26.1836 92.9074 26.9842 92.8604 27.7848C92.8487 28.0438 92.7312 28.1733 92.4494 28.0202C90.6878 27.0784 88.9731 27.2197 87.3877 28.3499C85.8844 29.4212 85.72 31.0224 86.6361 32.2939C87.5991 33.6242 89.0671 34.0128 90.6525 33.8008C91.0871 33.742 91.3572 33.8008 91.5568 34.1423C91.7095 34.3895 91.8387 34.6721 91.9209 34.9428C92.238 35.9789 92.5081 37.0267 92.8604 38.051C92.9309 38.2511 93.2245 38.4748 93.4359 38.4983C94.8569 38.6867 96.2897 38.828 97.7225 38.9928C97.7577 38.9575 97.7929 38.9222 97.8282 38.8868C97.6285 38.4866 97.4054 38.098 97.2527 37.686C97.0413 37.1209 96.8064 36.5558 96.7125 35.9671C96.5481 34.9311 97.1 34.0952 97.699 33.3299C98.1218 32.7766 98.1687 32.2468 97.8282 31.6817C97.746 31.5522 97.746 31.3756 97.699 31.2225C97.8751 31.2225 98.063 31.1754 98.2157 31.2225C99.2844 31.6228 100.189 32.3057 101.081 33.0003C101.14 33.0474 101.21 33.2004 101.175 33.2475C101.14 33.3181 101.011 33.377 100.929 33.377C100.729 33.3535 100.529 33.2946 100.318 33.2475C99.5545 33.0591 98.5445 33.4712 98.1452 34.1187C97.7107 34.8369 97.7459 35.6139 97.9221 36.3674C98.2157 37.6389 99.1318 38.5454 100.024 39.4166C100.776 40.1583 101.61 40.8059 102.42 41.5005C103.465 42.3952 104.511 43.29 105.697 44.0199C106.848 44.7263 108.069 45.2444 109.408 45.3503C110.946 45.4798 112.508 45.4209 114 44.9147C114.622 44.7028 114.834 44.3143 114.704 43.6667C114.669 43.5019 114.81 43.29 114.928 43.1487C114.963 43.1016 115.268 43.184 115.339 43.2782C115.62 43.6785 115.867 44.0906 116.09 44.5262C116.149 44.6439 116.09 44.9618 116.02 44.9971C115.068 45.4092 114.117 45.7977 113.142 46.1627C111.757 46.6689 110.347 46.9515 108.856 46.7395C107.822 46.5865 106.824 46.3275 105.885 45.8801C104.734 45.3268 103.747 44.538 102.866 43.6079C102.373 43.0899 101.915 42.5247 101.34 42.1127C100.635 41.5947 99.8834 41.0884 99.073 40.8059C98.0513 40.4409 96.9474 40.3114 95.8669 40.0877C94.9978 39.8993 94.117 39.7581 93.2597 39.5344C92.4376 39.3225 91.6155 39.605 91.1928 40.3467C90.9579 40.747 90.9814 40.8294 91.4394 40.9707C92.285 41.2415 93.1305 41.5005 93.9644 41.783C94.3167 41.9008 94.6455 42.0656 94.9744 42.254C95.0566 42.3011 95.1388 42.5247 95.0918 42.5836C95.0213 42.6778 94.8452 42.772 94.7395 42.7602C94.4694 42.7131 94.211 42.5718 93.9291 42.5247C92.4846 42.2893 91.0518 42.1009 89.5838 42.1362C88.8557 42.1598 87.8222 42.9133 87.6226 43.7138C87.8809 43.7727 88.1393 43.8198 88.3859 43.9022C89.3607 44.2201 90.3237 44.5615 91.2985 44.8676C92.1675 45.1384 93.0601 45.3856 93.9291 45.6564C94.0701 45.7035 94.2345 45.8448 94.258 45.9743C94.3519 46.3981 94.0818 46.5747 93.5768 46.4452C92.6021 46.198 91.639 45.9507 90.6643 45.7035C89.6895 45.4563 88.7148 45.2208 87.7635 44.9265C87.3407 44.797 87.0706 44.8794 86.8475 45.2326C86.777 45.3385 86.6948 45.4445 86.6126 45.5504C86.2485 46.0214 85.8727 46.5041 85.4851 47.0103C85.6496 47.0927 85.7435 47.1516 85.8492 47.1869C87.1293 47.6461 88.4212 48.0934 89.7013 48.5408C90.8287 48.9293 91.9679 49.3179 93.0953 49.7181C93.6238 49.9065 94.1288 50.1302 94.5398 50.554C94.669 50.6835 94.9039 50.7895 95.0918 50.7777C95.6555 50.7542 96.2075 50.66 96.7712 50.5894C97.652 50.4834 98.5328 50.3657 99.4254 50.2597C100.4 50.142 101.363 50.0478 102.326 49.8712C102.514 49.8359 102.761 49.518 102.796 49.3061C102.902 48.5291 102.291 47.9993 101.422 48.0817C100.177 48.1994 98.9438 48.3407 97.699 48.4584C96.9004 48.5408 96.09 48.5526 95.3032 48.6821C94.5046 48.8116 94.0818 48.5879 93.8352 47.7167C94.1992 47.6578 94.5516 47.5872 94.9156 47.5401C95.9021 47.4106 96.9004 47.2929 97.8869 47.1634C98.9556 47.0221 100.024 46.8573 101.093 46.716C101.915 46.61 102.749 46.5629 103.571 46.4099C104.276 46.2804 104.534 46.4099 105.004 46.9515C105.403 47.3988 105.92 47.8698 106.472 48.0464C107.881 48.5055 109.373 48.6586 110.852 48.5173C111.733 48.4349 112.614 48.2347 113.448 47.9522C114.176 47.7049 114.857 47.2811 115.538 46.8926C116.877 46.1391 117.852 44.9736 118.756 43.7609C119.355 42.9486 119.931 42.1127 120.506 41.2886C120.741 40.9471 120.952 40.594 121.211 40.1937C121.011 40.1701 120.882 40.1348 120.764 40.1348C119.449 40.1937 118.145 40.2761 116.83 40.3232C116.443 40.3232 116.219 40.4998 116.031 40.7823C115.115 42.1245 113.718 42.6072 112.215 42.666C111.205 42.7014 110.289 42.2304 109.596 41.4298C109.525 41.3474 109.49 41.2415 109.42 41.1002C109.596 41.1002 109.701 41.0649 109.795 41.0884C110.488 41.2415 111.169 41.4416 111.874 41.5711C112.696 41.7242 114.105 41.4887 114.563 40.4409C114.716 40.0995 114.845 39.7581 115.021 39.4284C115.08 39.3225 115.221 39.193 115.327 39.193C116.325 39.2165 117.323 39.2636 118.322 39.3107C119.05 39.346 119.766 39.346 120.436 38.9575C120.729 38.7927 120.717 38.5925 120.518 38.4395C120.118 38.1216 119.707 37.7684 119.238 37.58C118.275 37.2151 117.453 37.6742 116.654 38.1805C116.489 38.2864 116.302 38.3453 116.055 38.463L116.09 38.4748ZM80.1064 62.4685C80.1064 62.4685 80.0242 62.492 79.9889 62.492C80.3178 63.6693 80.6231 64.8584 80.9754 66.0357C81.0224 66.2123 81.2338 66.3536 81.3865 66.4949C81.727 66.8245 82.1616 66.7657 82.5726 66.7421C83.7235 66.6715 83.9819 66.283 83.5709 65.3058C83.3595 64.7996 83.2655 64.2227 83.1716 63.6693C83.1481 63.5163 83.3007 63.3397 83.3712 63.1749C83.5121 63.2337 83.6766 63.269 83.7822 63.375C84.346 63.9166 84.6513 64.5994 84.7922 65.3647C84.9801 66.3654 85.6848 66.8952 86.5891 66.7539C87.5991 66.5891 88.6091 66.4596 89.6191 66.3183C91.0636 66.1064 92.5198 65.9062 93.9644 65.6825C94.7395 65.5648 95.0918 65.1763 95.0096 64.3993C94.9391 63.6929 94.763 62.9983 94.5868 62.3154C94.5398 62.1506 94.3167 61.9622 94.1523 61.9269C93.5298 61.7974 92.9074 61.7268 92.285 61.6208C91.8504 61.5502 91.4159 61.4678 90.9814 61.3853C90.3237 61.2558 89.6778 61.1028 89.0319 60.9968C88.292 60.8791 87.5404 60.8085 86.8005 60.679C85.8962 60.5259 85.0036 60.3375 84.0993 60.1845C83.1833 60.0314 82.279 59.8784 81.3512 59.7489C81.1868 59.7253 80.905 59.7842 80.858 59.8901C80.4939 60.7143 80.0476 61.5266 80.1181 62.4685H80.1064ZM100.658 57.7003C99.3549 57.7828 98.1452 57.8416 96.9239 57.9358C96.4306 57.9829 95.9609 58.1242 95.7377 58.6657C95.6907 58.7835 95.585 58.8894 95.5028 58.9954C95.4089 58.9012 95.268 58.8188 95.2092 58.7011C95.0448 58.3243 94.7865 58.0418 94.3872 57.9476C93.9409 57.8416 93.4829 57.8063 93.0248 57.7357C92.5316 57.665 92.0266 57.5944 91.5333 57.512C90.7465 57.3825 89.9596 57.2294 89.1728 57.1117C88.3272 56.9939 87.4699 56.9233 86.6243 56.7938C85.5674 56.6408 84.5221 56.4642 83.4769 56.2876C82.5726 56.1463 81.6683 55.9932 80.7523 55.852C80.6114 55.8284 80.4704 55.852 80.3647 55.852C80.3295 56.1345 80.3178 56.3582 80.2825 56.5701C80.2238 56.994 80.1416 57.406 80.1064 57.8298C80.1064 57.9005 80.2355 58.03 80.3295 58.0535C80.8345 58.1713 81.3395 58.2655 81.8562 58.3596C82.8662 58.5245 83.8645 58.6775 84.8745 58.8541C85.9197 59.0425 86.9649 59.2544 88.0101 59.4428C88.6678 59.5605 89.3255 59.6311 89.9714 59.7371C90.723 59.8666 91.4864 60.0079 92.238 60.1609C93.107 60.3375 93.9761 60.4906 94.8334 60.7025C95.0331 60.7496 95.268 60.9851 95.3267 61.1852C95.6085 62.1859 95.8199 63.1984 96.09 64.1873C96.1488 64.411 96.3132 64.6112 96.4306 64.8231C96.642 64.6818 96.9121 64.5759 97.0531 64.3757C97.3584 63.9283 97.5933 63.4221 97.8634 62.9512C98.4271 61.9387 99.0143 60.9497 99.5545 59.9255C99.9303 59.2073 100.259 58.4656 100.635 57.6768L100.658 57.7003ZM98.5211 74.8774C97.9691 74.7832 97.7342 74.9245 97.5463 75.2894C97.4171 75.5367 97.1705 75.8428 96.9239 75.9016C96.0548 76.1371 95.174 76.3726 94.2814 76.4314C92.1088 76.5962 90.0301 76.1724 88.0336 75.3012C87.235 74.948 86.4364 74.795 85.5791 75.1246C84.9684 75.3601 84.5926 75.8781 84.6161 76.6198C84.6278 77.1025 84.8745 77.3615 85.6026 77.5263C87.1293 77.8677 88.656 78.1974 90.1828 78.527C91.9796 78.9156 93.8117 79.0097 95.6438 79.0568C96.5128 79.0804 97.3701 79.0097 98.2392 78.9744C100.553 78.8802 102.843 78.5506 105.074 77.8913C105.685 77.7147 106.296 77.5263 106.859 77.2555C107.294 77.0436 107.353 76.4196 107.012 76.1842C106.66 75.937 106.284 75.725 105.896 75.5367C105.474 75.3365 105.098 75.3718 104.734 75.7486C104.37 76.1253 103.912 76.4314 103.477 76.7493C103.371 76.8199 103.172 76.8553 103.078 76.7964C102.996 76.7493 102.996 76.5492 102.972 76.4197C102.937 76.2195 102.949 76.0076 102.878 75.831C102.819 75.6662 102.667 75.4307 102.549 75.4307C102.373 75.4307 102.162 75.5602 102.033 75.7015C101.798 75.9605 101.61 76.2784 101.41 76.5727C101.163 76.9494 101.023 76.9494 100.776 76.5727C100.459 76.09 100.189 75.984 99.6955 76.1842C99.2492 76.3608 98.8264 76.5609 98.3801 76.7257C98.2275 76.7846 98.0513 76.7728 97.8869 76.7846C97.9221 76.608 97.9456 76.4314 98.0043 76.2666C98.1687 75.8192 98.3449 75.3836 98.5328 74.8891L98.5211 74.8774ZM82.4904 51.5077C82.6431 51.5665 82.737 51.6018 82.831 51.6254C83.7235 51.802 84.6278 51.955 85.5204 52.1316C86.7653 52.3789 88.0101 52.6379 89.2667 52.8851C90.0536 53.0382 90.8404 53.1559 91.6156 53.3678C92.0618 53.4856 92.4024 53.4031 92.7312 53.1441C93.295 52.6968 93.295 52.685 93.7765 53.203C93.8821 53.3207 93.9291 53.5091 94.0466 53.6033C94.2697 53.7799 94.5163 54.0153 94.763 54.0271C95.2445 54.0507 95.7377 53.9212 96.2192 53.8741C98.0513 53.6621 99.8834 53.462 101.715 53.2501C101.868 53.2265 102.08 53.1677 102.138 53.0499C102.432 52.5437 102.526 51.9904 102.444 51.4017C102.044 51.437 101.715 51.4723 101.375 51.5077C100.541 51.6018 99.6955 51.7196 98.8616 51.802C98.11 51.8844 97.3467 51.9315 96.595 52.0021C96.137 52.0492 95.679 52.1316 95.221 52.167C94.6455 52.2141 94.1053 52.1787 93.7765 51.5548C93.6708 51.3546 93.4006 51.2016 93.1775 51.1191C92.1558 50.7542 91.1105 50.4128 90.0771 50.0596C88.3742 49.4709 86.6713 48.894 84.9684 48.2936C84.6396 48.1759 84.4517 48.27 84.2755 48.5644C83.7001 49.5298 83.1128 50.4834 82.4787 51.5194L82.4904 51.5077ZM81.0107 54.71C81.4334 54.7924 81.821 54.8748 82.2085 54.9454C83.1951 55.1102 84.1933 55.2398 85.1798 55.4164C86.4364 55.64 87.693 55.8873 88.9614 56.1227C89.3137 56.1816 89.666 56.2405 90.0066 56.2993C90.723 56.4171 91.4511 56.4995 92.144 56.6879C92.5316 56.7938 92.6725 56.7114 92.7782 56.3582C92.9544 55.7931 93.201 55.5694 93.6473 55.7107C93.8939 55.7813 94.1288 56.0756 94.2697 56.3229C94.4694 56.6996 94.763 56.8409 95.1388 56.8409C95.7377 56.8409 96.3367 56.7938 96.9239 56.7349C98.0161 56.629 99.1083 56.5113 100.2 56.3935C100.565 56.3464 100.976 56.3582 101.269 56.1816C101.774 55.8873 101.739 55.3104 101.762 54.7806C101.774 54.4392 101.68 54.2744 101.316 54.3214C100.247 54.4627 99.1787 54.5922 98.1218 54.7217C97.699 54.7688 97.2644 54.8041 96.8417 54.8512C95.8669 54.969 94.8921 55.1102 93.9174 55.2044C93.706 55.228 93.4594 55.1102 93.2597 55.0043C92.9896 54.8748 92.7547 54.6511 92.4846 54.5451C92.2497 54.451 91.9679 54.4627 91.7095 54.4156C90.7347 54.239 89.76 54.0507 88.7852 53.8741C87.2937 53.6151 85.814 53.3443 84.3225 53.097C83.6648 52.9911 83.0071 52.9087 82.3377 52.8733C82.1851 52.8733 81.9502 53.0146 81.8562 53.1677C81.5626 53.6504 81.3043 54.1684 81.0224 54.7217L81.0107 54.71ZM97.6637 68.5905C95.8669 68.2491 94.2814 68.5905 92.7312 68.9319C92.9309 69.4735 93.1305 69.9326 93.2832 70.4153C93.4241 70.8627 93.2362 71.4043 92.9426 71.628C92.3437 72.0636 91.639 72.1931 90.9579 72.1813C89.7365 72.1578 88.6091 71.7104 87.5873 71.0393C86.777 70.5095 86.7065 70.0268 87.1763 69.1792C87.1763 69.1792 87.1763 69.1438 87.1763 69.0497C86.8944 69.0143 86.5891 68.9437 86.2955 68.9672C86.0254 68.979 85.8257 69.1203 85.9314 69.4853C86.0371 69.8502 86.0489 70.2505 86.1311 70.6273C86.3777 71.6751 87.0001 72.6993 88.245 72.8759C88.9731 72.9819 89.713 73.0172 90.4411 73.0525C92.1675 73.1232 93.8939 73.1938 95.6203 73.2056C96.4189 73.2056 97.241 73.2056 98.0161 73.0408C99.2492 72.77 100.459 72.3579 101.68 72.0047C102.021 71.8988 102.35 71.7693 102.69 71.6397C102.69 71.5809 102.69 71.522 102.69 71.4632C101.974 71.004 101.281 70.5213 100.541 70.0975C100.13 69.862 99.8012 70.1446 99.5311 70.4389C99.3314 70.6626 99.167 70.9098 98.9673 71.1335C98.8969 71.2041 98.709 71.2866 98.6737 71.2512C98.5915 71.1806 98.5093 71.0275 98.5211 70.9216C98.5563 70.5566 98.6385 70.1917 98.6855 69.8267C98.6972 69.7207 98.6855 69.6148 98.6855 69.5088C98.5915 69.5441 98.4976 69.5559 98.4154 69.603C97.7812 69.9326 97.1588 70.2858 96.5246 70.6037C96.4071 70.6626 96.2427 70.6037 96.1135 70.6155C96.1253 70.4624 96.09 70.2741 96.1605 70.1681C96.3484 69.9209 96.595 69.7325 96.8064 69.5088C97.0648 69.238 97.3232 68.9672 97.652 68.6258L97.6637 68.5905ZM115.949 20.2029C115.949 20.2853 115.973 20.3677 115.984 20.4501C120.694 20.5796 125.391 21.0387 130.183 21.0152C129.96 20.5914 129.749 20.4619 129.396 20.4736C128.833 20.4972 128.245 20.5796 127.811 20.0851C127.752 20.0263 127.611 20.038 127.517 20.0263C126.566 19.9203 125.603 19.8379 124.652 19.7202C123.923 19.626 123.195 19.4376 122.455 19.4141C120.858 19.367 119.238 19.0491 117.664 19.5789C117.088 19.779 116.513 20.0027 115.949 20.2146V20.2029ZM85.9079 78.8449C85.9079 78.8449 85.9079 78.9509 85.9079 78.998C86.0019 79.0568 86.1076 79.1157 86.2133 79.1628C87.6578 79.8339 89.1728 80.2695 90.723 80.5873C92.2967 80.917 93.8822 81.1054 95.5028 81.07C97.6403 81.0229 99.7894 81.1171 101.892 80.6109C103.254 80.2812 104.558 79.8692 105.802 79.2334C105.92 79.1746 106.014 79.0686 106.119 78.9862C99.3549 80.7993 92.6373 80.5403 85.9197 78.8449H85.9079ZM83.9232 74.2181C82.7253 73.5117 81.5861 73.0761 80.2473 73.7354C79.7188 73.9944 79.39 74.3829 79.1433 74.842C78.838 75.3836 79.0142 75.7957 79.6249 75.9958C80.2708 76.2077 80.9402 76.3372 81.5979 76.4667C81.821 76.5138 82.1498 76.5609 82.3025 76.4432C83.0424 75.8663 83.4182 75.0069 83.9232 74.2298V74.2181ZM110.982 18.4722C115.104 17.3538 119.132 16.2589 123.16 15.1757C123.16 15.1404 123.137 15.0933 123.137 15.058C122.913 15.0815 122.702 15.1169 122.479 15.1522C121.363 15.3405 120.236 15.5171 119.12 15.7173C118.369 15.8468 117.617 15.9763 116.865 16.1647C115.151 16.5885 113.448 17.083 111.721 17.4833C111.193 17.6128 111.087 17.9306 110.97 18.484L110.982 18.4722ZM89.6308 67.8606C89.6308 67.9194 89.6308 67.9901 89.6425 68.0489C89.7835 68.0607 89.9244 68.096 90.0653 68.0843C90.6878 68.0254 91.2985 67.943 91.9209 67.8723C92.2615 67.837 92.6021 67.837 92.9426 67.7782C93.9174 67.6133 94.8921 67.425 95.8669 67.2719C96.4306 67.1777 96.8064 67.0011 96.9826 66.6479C94.4224 66.5537 91.9679 66.8599 89.6308 67.8488V67.8606ZM95.08 74.6537C92.8957 73.9473 90.7347 74.0179 88.4916 74.0533C89.6543 75.0069 93.7177 75.4543 95.08 74.6537ZM79.1433 77.3026C79.5544 78.7036 80.7053 78.9038 81.8797 79.0451C82.3142 79.1039 82.8897 78.8214 83.0776 78.3858C81.7975 77.9148 80.5174 77.4439 79.1433 77.2909V77.3026ZM82.4904 71.993C83.3242 72.3579 84.1463 72.7229 85.0624 73.1232C84.9801 72.5698 84.9332 72.1107 84.8275 71.6751C84.7805 71.4867 84.6278 71.2041 84.4752 71.1806C83.888 71.0393 82.9954 71.2983 82.4904 71.993ZM106.307 29.2917C106.765 29.2917 106.93 29.0209 106.942 28.1851C106.942 27.8083 106.589 27.408 106.237 27.408C105.708 27.408 105.25 27.8554 105.25 28.397C105.25 28.9268 105.673 29.2917 106.307 29.2917ZM99.8481 73.4764C100.13 73.8884 100.553 73.9237 100.929 74.0886C101.457 74.3123 101.786 74.0886 102.126 73.806C102.373 73.6059 102.385 73.394 102.021 73.2998C101.293 73.0996 100.565 73.0643 99.8364 73.4881L99.8481 73.4764ZM83.5591 67.7311C84.1933 68.3315 85.6496 68.4728 86.3072 68.0018C85.4147 67.6369 84.5691 67.2366 83.5591 67.7311ZM89.1493 70.8627C90.1241 71.5691 91.5686 71.4749 91.8857 70.6861C90.9814 70.745 90.1123 70.8039 89.1493 70.8627ZM82.5609 69.5912C82.5609 69.5912 82.5609 69.6383 82.5609 69.6736C82.737 69.709 82.9249 69.7443 83.1011 69.7796C83.3008 69.8149 83.5121 69.862 83.7118 69.8856C84.4282 69.9797 84.6865 69.6736 84.5574 68.9319C83.8997 69.1438 83.2303 69.3675 82.5726 69.5912H82.5609ZM88.4446 69.8738C89.0436 70.2034 90.5586 69.8973 90.8287 69.3675C90.0653 69.5324 89.3137 69.6972 88.4446 69.8738ZM13.2709 57.4531C13.1886 57.253 13.0242 57.0764 12.895 56.8998C12.3431 56.0992 11.7324 55.3457 10.8163 54.969C10.1117 54.6746 9.34834 54.451 8.58497 54.345C8.06823 54.2744 7.49277 54.3921 6.97603 54.5334C6.58848 54.6393 6.2479 55.3457 6.28313 55.7107C6.33011 56.1698 6.72941 56.5701 7.28138 56.6525C7.85684 56.7349 8.44404 56.7349 9.00776 56.8291C9.66543 56.9351 10.3348 57.041 10.9573 57.2294C11.6149 57.4296 12.2491 57.7357 12.895 58.0064C13.2591 57.9594 13.4 57.7828 13.2591 57.4649L13.2709 57.4531ZM144.922 54.2861C143.853 54.451 142.843 54.7335 142.092 55.5694C141.61 56.111 141.164 56.6996 140.741 57.2883C140.659 57.406 140.647 57.6886 140.741 57.771C140.823 57.8652 141.082 57.8769 141.234 57.8181C141.587 57.7003 141.915 57.5237 142.256 57.3707C143.242 56.9233 144.252 56.6054 145.356 56.629C145.861 56.629 146.366 56.5466 146.86 56.4642C147.423 56.3582 147.776 55.7107 147.6 55.1573C147.388 54.4863 146.883 54.1566 145.932 54.1449C145.709 54.1802 145.321 54.239 144.934 54.2979L144.922 54.2861ZM4.26315 58.4774C4.32188 58.4774 4.3806 58.4774 4.43932 58.4774C5.86035 58.4774 7.19917 58.7246 8.33835 59.6547C8.40881 59.7136 8.58497 59.7136 8.65544 59.6547C8.7259 59.6076 8.76113 59.4192 8.71416 59.3486C8.49102 58.9483 8.29137 58.5009 7.97428 58.1948C6.92906 57.2176 5.73116 56.5701 4.28664 56.3229C3.49979 56.1934 2.95956 56.3935 2.45457 56.8998C1.96132 57.3942 2.0905 58.0771 2.77166 58.2772C3.25316 58.4185 3.7699 58.4303 4.26315 58.5127C4.26315 58.5009 4.26315 58.4891 4.26315 58.4656V58.4774ZM151.51 56.7349C150.876 55.9461 149.972 56.0403 149.197 56.2758C148.316 56.5348 147.459 56.9822 146.684 57.4884C146.061 57.8887 145.439 58.395 145.274 59.2191C145.251 59.3368 145.274 59.4545 145.274 59.584C145.392 59.5605 145.544 59.584 145.627 59.5016C146.73 58.5598 148.081 58.395 149.443 58.2772C149.925 58.2419 150.395 58.2537 150.876 58.2184C151.44 58.183 151.804 57.8298 151.804 57.2412C151.745 57.1352 151.639 56.9233 151.499 56.7467L151.51 56.7349ZM153.413 60.3375C153.753 60.2669 154.012 60.0079 154 59.69C154 59.431 153.824 59.1131 153.612 58.9365C153.425 58.7717 153.096 58.6657 152.837 58.6775C151.769 58.7246 150.747 58.9954 149.843 59.5723C149.291 59.9255 148.821 60.4199 148.328 60.8791C148.245 60.9497 148.269 61.1381 148.234 61.2794C148.375 61.2794 148.551 61.3265 148.668 61.2676C149.678 60.7143 150.794 60.6319 151.91 60.5965C152.403 60.5141 152.908 60.4435 153.401 60.3493L153.413 60.3375ZM5.28489 61.4324C5.40233 61.4913 5.56675 61.456 5.70768 61.456C5.68419 61.3029 5.71942 61.1028 5.63721 61.0204C5.2614 60.6436 4.88559 60.2433 4.45106 59.949C3.35886 59.2073 2.14922 58.8423 0.822142 58.8777C0.4111 58.8777 0.0352894 59.2779 -0.0116869 59.6782C-0.0469191 60.0667 0.223194 60.4553 0.622493 60.5259C1.104 60.6201 1.58551 60.6672 1.83213 60.7025C3.19444 60.679 4.26315 60.8791 5.2614 61.4207L5.28489 61.4324ZM16.935 61.6208C17.029 61.6208 17.1112 61.609 17.2051 61.5855C18.2621 61.2912 19.3191 61.2912 20.376 61.5619C20.7871 61.6679 21.2803 61.456 21.386 61.1028C21.4917 60.7614 21.48 60.3846 21.1276 60.1845C20.881 60.0432 20.5757 59.9137 20.2821 59.9019C19.0137 59.8548 17.8745 60.2198 16.9702 61.1616C16.8763 61.2676 16.8176 61.4207 16.7471 61.5619C16.8528 61.609 16.8998 61.6326 16.935 61.6326V61.6208ZM27.0232 59.2544C26.4712 59.172 25.9192 59.1484 25.3673 59.2662C24.6156 59.431 23.911 59.7253 23.3238 60.2316C23.2298 60.314 23.2181 60.4788 23.1594 60.6083C23.2768 60.6436 23.406 60.7025 23.5234 60.6907C24.2633 60.6554 24.9914 60.5612 25.7313 60.573C26.1306 60.573 26.5299 60.7731 26.941 60.8438C27.4342 60.938 27.8805 60.5612 27.8922 60.0785C27.8922 59.6782 27.5282 59.3368 27.0232 59.2544ZM133.284 61.4089C133.471 61.4089 133.659 61.3618 133.859 61.3265C134.869 61.1499 135.867 61.0321 136.854 61.4795C136.948 61.5266 137.065 61.5031 137.183 61.5148C137.159 61.3971 137.183 61.2441 137.112 61.1616C136.572 60.4788 135.867 60.0667 135.022 59.8784C134.329 59.7253 133.659 59.6311 132.978 59.9726C132.685 60.1256 132.532 60.3022 132.555 60.573C132.555 61.091 132.837 61.4089 133.295 61.4089H133.284ZM130.665 60.1021C130.042 59.7842 129.443 59.4074 128.786 59.1955C128.057 58.9483 127.294 58.9247 126.566 59.2779C126.108 59.4899 125.979 59.8077 126.155 60.208C126.366 60.6907 126.801 60.8791 127.247 60.7025C128.292 60.2787 129.349 60.2551 130.441 60.5259C130.594 60.5612 130.77 60.5259 131.087 60.5259C130.888 60.314 130.794 60.1727 130.676 60.1021H130.665ZM19.7418 58.3714C19.6244 58.4774 19.5539 58.654 19.46 58.7952C19.6361 58.8188 19.8123 58.8541 19.9885 58.8777C20.0354 58.8777 20.0942 58.8306 20.1529 58.807C21.0337 58.5127 21.9262 58.4538 22.8305 58.6775C23.0889 58.7364 23.3942 58.7952 23.6174 58.7011C23.8758 58.5951 24.1341 58.3479 24.2516 58.1006C24.3925 57.7945 24.1459 57.5591 23.8523 57.4649C23.4882 57.3354 23.1006 57.2294 22.7248 57.1235C21.5857 57.3001 20.5757 57.6532 19.7301 58.3832L19.7418 58.3714ZM134.575 58.654C134.47 58.5127 134.387 58.3361 134.258 58.2301C133.107 57.3471 131.851 56.8527 130.371 57.2059C130.007 57.2883 129.666 57.6415 129.702 57.9358C129.749 58.3361 130.019 58.5362 130.394 58.5716C130.594 58.5833 130.806 58.5362 131.017 58.548C131.862 58.548 132.708 58.548 133.565 58.5951C133.871 58.6069 134.164 58.7364 134.458 58.807L134.575 58.6657V58.654ZM38.6968 20.4501C38.5089 20.3677 38.3327 20.2735 38.1448 20.2029C37.3932 19.9438 36.6298 19.6966 35.8782 19.4376C35.0444 19.1433 34.187 19.1668 33.3297 19.2375C32.5781 19.2963 31.8382 19.4141 31.0866 19.4847C30.5581 19.5318 30.0179 19.5436 29.4894 19.5906C28.4794 19.6966 27.4812 19.8143 26.4829 19.9321C26.342 19.9438 26.2128 20.038 26.0836 20.0851C25.7313 20.2146 25.3907 20.3677 25.0267 20.4619C24.8153 20.5207 24.5804 20.4619 24.3573 20.4619C24.0519 20.4736 23.6056 20.8151 23.6409 21.027C23.7113 21.4155 24.0402 21.3566 24.322 21.3566C24.3925 21.3566 24.4747 21.3566 24.5452 21.3566C25.7431 21.2978 26.941 21.2389 28.1506 21.2036C28.5851 21.1918 29.0197 21.2624 29.4542 21.2389C30.5581 21.18 31.6503 21.0741 32.7543 21.0152C33.9287 20.9563 35.1148 20.9446 36.2892 20.8975C36.9704 20.8622 37.6515 20.8033 38.3327 20.7326C38.4619 20.7209 38.5911 20.6385 38.7203 20.5914C38.7203 20.5443 38.7203 20.4972 38.7203 20.4501H38.6968ZM45.0621 18.9314C44.146 18.743 43.2182 18.5899 42.3492 18.2838C40.8694 17.754 39.3192 17.5421 37.7925 17.2478C36.1835 16.9417 34.5629 16.718 32.9539 16.4708C32.8482 16.459 32.719 16.4708 32.6133 16.5179C32.5546 16.5414 32.4842 16.6474 32.4959 16.7062C32.4959 16.7651 32.5899 16.8593 32.6603 16.8711C32.9657 16.9652 33.2828 17.0359 33.5998 17.1183C34.786 17.4244 35.9721 17.7069 37.1583 18.0248C38.1918 18.3074 39.2253 18.637 40.2587 18.9196C42.0908 19.4258 43.9346 19.9203 45.7667 20.4148C45.9076 20.4501 46.0486 20.4736 46.213 20.4972C46.2834 19.5789 45.8841 19.108 45.0738 18.9431L45.0621 18.9314Z" fill="#A8D8B9"/>
</g>
<defs>
<clipPath id="clip0_110_3384">
<rect width="154" height="82" fill="white"/>
</clipPath>
</defs>
</svg>
